<svg width="17" height="19" viewBox="0 0 17 19" fill="none" xmlns="http://www.w3.org/2000/svg">
<path d="M8.49989 9.5C10.871 9.5 12.7932 7.59721 12.7932 5.25C12.7932 2.90279 10.871 1 8.49989 1C6.12874 1 4.20654 2.90279 4.20654 5.25C4.20654 7.59721 6.12874 9.5 8.49989 9.5Z" stroke="#CFD0DB" stroke-width="1.6"/>
<path d="M12.7934 11.2H13.0956C13.7234 11.2002 14.3294 11.4273 14.8 11.8386C15.2705 12.2499 15.5732 12.8172 15.651 13.4338L15.9867 16.0892C16.0169 16.3284 15.9954 16.5713 15.9235 16.8016C15.8517 17.0319 15.7312 17.2445 15.57 17.4252C15.4088 17.6059 15.2106 17.7506 14.9886 17.8497C14.7666 17.9488 14.5258 18.0001 14.2823 18H2.71771C2.47418 18.0001 2.23342 17.9488 2.01141 17.8497C1.7894 17.7506 1.59123 17.6059 1.43003 17.4252C1.26884 17.2445 1.14831 17.0319 1.07646 16.8016C1.0046 16.5713 0.983056 16.3284 1.01325 16.0892L1.34814 13.4338C1.42601 12.8169 1.72888 12.2494 2.19979 11.838C2.6707 11.4267 3.2772 11.1998 3.90526 11.2H4.20665" stroke="#CFD0DB" stroke-width="1.6" stroke-linecap="round" stroke-linejoin="round"/>
</svg>
