<svg width="18" height="18" viewBox="0 0 18 18" fill="none" xmlns="http://www.w3.org/2000/svg">
<path d="M1.28571 11.5714V12.8571H4.23386L0 17.091L0.909 18L5.14286 13.7661V16.7143H6.42857V11.5714H1.28571ZM14.1429 12.2143H15.4286V15.4286H14.1429V12.2143ZM11.5714 9H12.8571V15.4286H11.5714V9ZM9 10.2857H10.2857V15.4286H9V10.2857Z" fill="#CFD0DB"/>
<path d="M16.7143 0H1.28571C0.944826 0.000340378 0.617997 0.135908 0.376953 0.376953C0.135908 0.617997 0.000340378 0.944826 0 1.28571V9H1.28571V7.07143H16.7149L16.7156 16.7143H9V18H16.7143C17.0551 17.9995 17.3819 17.8639 17.6229 17.6229C17.8639 17.3819 17.9995 17.0551 18 16.7143V1.28571C17.9997 0.944826 17.8641 0.617997 17.623 0.376953C17.382 0.135908 17.0552 0.000340378 16.7143 0ZM6.42857 5.78571H1.28571V1.28571H6.42857V5.78571ZM7.71429 5.78571V1.28571H16.7143V5.78571H7.71429Z" fill="#CFD0DB"/>
</svg>
