<svg width="18" height="20" viewBox="0 0 18 20" fill="none" xmlns="http://www.w3.org/2000/svg">
<path d="M4.19987 4.6H10.5996H4.19987ZM4.19987 8.2H13.7995H4.19987ZM8.99968 11.8H13.7995H8.99968ZM8.99968 15.4H13.7995H8.99968ZM1 18.46V1.54C1 1.39678 1.05057 1.25943 1.14058 1.15816C1.2306 1.05689 1.35268 1 1.47998 1H14.0011C14.1283 1.00013 14.2503 1.0571 14.3403 1.1584L16.8586 3.9916C16.9033 4.04191 16.9388 4.10168 16.963 4.16748C16.9872 4.23328 16.9995 4.30381 16.9994 4.375V18.46C16.9994 18.5309 16.987 18.6011 16.9628 18.6666C16.9387 18.7322 16.9034 18.7917 16.8588 18.8418C16.8142 18.892 16.7613 18.9318 16.7031 18.9589C16.6448 18.986 16.5824 19 16.5194 19H1.47998C1.41695 19 1.35453 18.986 1.2963 18.9589C1.23807 18.9318 1.18515 18.892 1.14058 18.8418C1.09601 18.7917 1.06066 18.7322 1.03654 18.6666C1.01241 18.6011 1 18.5309 1 18.46V18.46Z" stroke="#CFD0DB" stroke-width="1.5" stroke-linecap="round" stroke-linejoin="round"/>
<path d="M13.7993 4.06V1.3186C13.7994 1.25567 13.8161 1.19418 13.8472 1.14189C13.8783 1.0896 13.9225 1.04885 13.9742 1.02478C14.0259 1.00072 14.0828 0.994409 14.1376 1.00666C14.1925 1.0189 14.2429 1.04915 14.2825 1.0936L16.916 4.0564C16.9559 4.10078 16.9831 4.15753 16.9942 4.21941C17.0054 4.28128 16.9998 4.34548 16.9784 4.4038C16.9569 4.46213 16.9205 4.51194 16.8738 4.54688C16.827 4.58183 16.7721 4.60032 16.716 4.6H14.2793C14.2163 4.6 14.1539 4.58603 14.0956 4.55889C14.0374 4.53175 13.9845 4.49198 13.9399 4.44183C13.8953 4.39169 13.86 4.33216 13.8359 4.26665C13.8117 4.20113 13.7993 4.13091 13.7993 4.06ZM4.19971 15.4V11.8H5.79964V15.4H4.19971Z" fill="#CFD0DB" stroke="#CFD0DB" stroke-width="1.5" stroke-linecap="round" stroke-linejoin="round"/>
</svg>
