<svg width="18" height="20" viewBox="0 0 18 20" fill="none" xmlns="http://www.w3.org/2000/svg">
<path d="M0.992188 16.3H3.51744M3.51744 16.3H6.04269M3.51744 16.3V13.5M3.51744 16.3V19M5.20768 1H13.2043L16.9922 5.05V16.3" stroke="#CFD0DB" stroke-width="1.5" stroke-linecap="round" stroke-linejoin="round"/>
<path d="M8.57483 19H13.2045C13.5393 19 13.8605 18.8578 14.0973 18.6046C14.3341 18.3514 14.4671 18.0081 14.4671 17.65V7.07411C14.4671 7.00307 14.4541 6.93272 14.4287 6.86708C14.4032 6.80144 14.3659 6.74182 14.3189 6.69161L11.6691 3.85841C11.622 3.80804 11.5661 3.76811 11.5046 3.74093C11.4431 3.71374 11.3771 3.69984 11.3105 3.70001H3.10345C2.76858 3.70001 2.44742 3.84225 2.21064 4.09542C1.97385 4.34859 1.84082 4.69197 1.84082 5.05001V10.9" stroke="#CFD0DB" stroke-width="1.5" stroke-linecap="round" stroke-linejoin="round"/>
<path d="M11.1001 6.76001V4.01861C11.1002 3.95568 11.1177 3.89419 11.1505 3.8419C11.1832 3.78961 11.2297 3.74886 11.2841 3.7248C11.3385 3.70073 11.3983 3.69442 11.4561 3.70667C11.5138 3.71891 11.5668 3.74917 11.6085 3.79361L14.3796 6.75641C14.4215 6.80079 14.4502 6.85754 14.4619 6.91942C14.4736 6.98129 14.4678 7.04549 14.4452 7.10381C14.4226 7.16214 14.3843 7.21195 14.3351 7.2469C14.2859 7.28184 14.2282 7.30033 14.1691 7.30001H11.6051C11.4712 7.30001 11.3427 7.24312 11.248 7.14185C11.1533 7.04058 11.1001 6.90323 11.1001 6.76001Z" fill="#CFD0DB" stroke="#CFD0DB" stroke-width="1.5" stroke-linecap="round" stroke-linejoin="round"/>
</svg>
