<svg width="18" height="18" viewBox="0 0 18 18" fill="none" xmlns="http://www.w3.org/2000/svg">
<path d="M18 5.55033C18.0002 5.35803 17.9623 5.16761 17.8884 4.99006C17.8146 4.81251 17.7063 4.65136 17.5699 4.51591L13.4794 0.424001C13.2038 0.152303 12.8323 0 12.4453 0C12.0584 0 11.6869 0.152303 11.4113 0.424001L0.430097 11.409C0.28768 11.5495 0.175562 11.7178 0.100661 11.9033L0.0732079 11.9765C0.0251894 12.1275 0.000502257 12.285 0 12.4434V16.5353C0 16.9238 0.154259 17.2963 0.428842 17.571C0.703425 17.8457 1.07584 18 1.46416 18H5.55465C5.71392 18.001 5.87204 17.973 6.02135 17.9176L6.09456 17.8993C6.28005 17.8244 6.44823 17.7122 6.58871 17.5697L14.2481 9.9077L14.5592 11.1801L11.1917 14.5489C11.0542 14.6877 10.9771 14.8752 10.9771 15.0706C10.9771 15.2661 11.0542 15.4536 11.1917 15.5924C11.3316 15.7278 11.5186 15.8034 11.7133 15.8034C11.9079 15.8034 12.0949 15.7278 12.2349 15.5924L15.8953 11.9308C15.9811 11.839 16.0434 11.7277 16.0769 11.6066C16.1103 11.4854 16.114 11.3579 16.0874 11.2351L15.456 8.70851L17.5699 6.58475C17.7063 6.44929 17.8146 6.28814 17.8884 6.11059C17.9623 5.93304 18.0002 5.74262 18 5.55033ZM1.46416 13.9081L4.09049 16.5353H1.46416V13.9081ZM5.85663 16.2332L1.76614 12.1413L9.51703 4.38775L13.6075 8.47966L5.85663 16.2332ZM14.6416 7.44524L10.5511 3.35333L12.4453 1.45842L16.5358 5.55033L14.6416 7.44524Z" fill="#CFD0DB"/>
</svg>
