<svg width="120" height="120" viewBox="0 0 120 120" fill="none" xmlns="http://www.w3.org/2000/svg">
<g clip-path="url(#clip0_7223_53934)">
<rect width="120" height="120" rx="60" fill="#8F8FCB"/>
<path d="M76.3715 120.1L78.0746 99.5918C78.0746 99.5918 88.5425 107.398 91.5568 115.7" fill="#3A2B24"/>
<path d="M50.5399 88.9473H70.056V101.366L50.5399 101.792V88.9473Z" fill="#F39555"/>
<path d="M48.9081 96.504C48.9081 96.504 52.4212 101.223 60.4218 101.188C68.4224 101.152 71.3334 95.6436 71.3334 95.6436V120.1H48.9081V96.504Z" fill="#E2F7FA"/>
<path d="M31.9663 56.0557V58.1845C31.9592 57.447 31.9592 56.738 31.9663 56.0557Z" fill="#3A2B24"/>
<path d="M32.0376 53.3252C32.0002 54.1839 31.9752 55.0942 31.9663 56.0562V53.4L32.0376 53.3252Z" fill="#3A2B24"/>
<path d="M78.0746 99.5918C78.0746 99.5918 88.5425 107.398 91.5568 115.7L76.3715 120.1L78.0746 99.5918Z" fill="#3A2B24"/>
<path d="M44.9746 120.1L43.2716 99.5918C43.2716 99.5918 32.8036 107.398 29.7893 115.7" fill="#3A2B24"/>
<path d="M69.2046 90.2939V120.1H76.3715L81.1975 95.1912L69.2046 90.2939Z" fill="#4C3F37"/>
<path d="M51.8173 90.2939V120.1H44.6504L39.8243 95.1912L51.8173 90.2939Z" fill="#4C3F37"/>
<path d="M86.7522 74.7184C91.3489 74.7184 95.0752 70.9921 95.0752 66.3953C95.0752 61.7986 91.3489 58.0723 86.7522 58.0723C82.1554 58.0723 78.4291 61.7986 78.4291 66.3953C78.4291 70.9921 82.1554 74.7184 86.7522 74.7184Z" fill="#F39555"/>
<path d="M33.3166 74.7184C37.9133 74.7184 41.6397 70.9921 41.6397 66.3953C41.6397 61.7986 37.9133 58.0723 33.3166 58.0723C28.7199 58.0723 24.9935 61.7986 24.9935 66.3953C24.9935 70.9921 28.7199 74.7184 33.3166 74.7184Z" fill="#F39555"/>
<path d="M89.3567 58.1848L89.3531 58.1777C89.2071 57.8962 84.463 48.8588 77.3103 48.6218C70.0455 48.3831 67.628 52.7745 60.7337 52.6141C53.8393 52.4538 50.198 48.604 42.9171 48.6129C35.6379 48.6218 32.6041 54.5737 31.9663 58.1848V56.0559C31.9752 55.0939 32.0002 54.1836 32.0376 53.3249C32.5328 41.8629 35.3796 39.2459 38.3529 35.8486C41.7057 32.0166 58.489 25.5053 63.1012 23.8379C67.7135 22.1704 70.1256 20.5029 70.1256 20.5029C70.1256 20.5029 77.6132 26.9252 84.2474 35.7595C90.8834 44.5957 89.3567 58.1848 89.3567 58.1848Z" fill="#3A2B24"/>
<path d="M89.3567 58.1847C88.8686 74.9324 86.6524 95.724 59.9872 95.6439C33.322 95.5655 32.1249 73.8492 31.9663 58.1847C32.6041 54.5736 35.6379 48.6217 42.9171 48.6128C50.198 48.6039 53.8393 52.4537 60.7337 52.614C67.628 52.7743 70.0455 48.383 77.3103 48.6217C84.463 48.8586 89.2071 57.8961 89.3531 58.1776L89.3567 58.1847Z" fill="#FEC695"/>
<path d="M75.185 71.3837C76.9766 71.3837 78.4291 69.9312 78.4291 68.1396C78.4291 66.3479 76.9766 64.8955 75.185 64.8955C73.3933 64.8955 71.9409 66.3479 71.9409 68.1396C71.9409 69.9312 73.3933 71.3837 75.185 71.3837Z" fill="#333331"/>
<path d="M46.1611 71.3837C47.9527 71.3837 49.4051 69.9312 49.4051 68.1396C49.4051 66.3479 47.9527 64.8955 46.1611 64.8955C44.3694 64.8955 42.917 66.3479 42.917 68.1396C42.917 69.9312 44.3694 71.3837 46.1611 71.3837Z" fill="#333331"/>
<path d="M61.9842 78.0538H59.4634C57.9064 78.0538 56.6433 76.7907 56.6433 75.2337V74.9148C56.6433 73.3578 57.9064 72.0947 59.4634 72.0947H61.9824C63.5394 72.0947 64.8025 73.3578 64.8025 74.9148V75.2337C64.8043 76.7907 63.5412 78.0538 61.9842 78.0538Z" fill="#F39555"/>
<path d="M60.6801 88.2422C55.4728 88.2422 53.2674 84.0877 52.8273 81.8823C52.7116 81.3033 53.0874 80.7403 53.6664 80.6245C54.2436 80.5087 54.8066 80.8829 54.9224 81.4601C54.9633 81.6596 55.9485 86.1044 60.6801 86.1044C60.6962 86.1044 60.7104 86.1044 60.7264 86.1044C62.6914 86.0919 64.1487 85.3544 65.059 83.9132C65.7805 82.7712 65.9016 81.5865 65.9034 81.5759C65.9604 80.9897 66.4824 80.5568 67.0667 80.6121C67.6528 80.6655 68.0839 81.1804 68.0341 81.7665C67.8381 83.9915 66.0637 88.2083 60.7425 88.2422C60.7211 88.2422 60.7015 88.2422 60.6801 88.2422Z" fill="#F39555"/>
</g>
<defs>
<clipPath id="clip0_7223_53934">
<rect width="120" height="120" rx="60" fill="white"/>
</clipPath>
</defs>
</svg>
