<svg width="120" height="120" viewBox="0 0 120 120" fill="none" xmlns="http://www.w3.org/2000/svg">
<g clip-path="url(#clip0_7223_53965)">
<rect width="120" height="120" rx="60" fill="#EAE8F5"/>
<path d="M82.8886 58.6758H34.7566L42.1765 84.0598L63.0695 103.098L78.6905 84.0598L82.8886 58.6758Z" fill="#4F342E"/>
<path d="M60.0429 145.863C80.566 145.863 97.2032 130.898 97.2032 112.437C97.2032 93.9755 80.566 79.0098 60.0429 79.0098C39.5199 79.0098 22.8827 93.9755 22.8827 112.437C22.8827 130.898 39.5199 145.863 60.0429 145.863Z" fill="#FF1746"/>
<path d="M60.0156 95.5486C54.314 95.5486 49.6902 90.9268 49.6902 85.2232V72.1855H70.3411V85.2232C70.3411 90.9268 65.7192 95.5486 60.0156 95.5486Z" fill="#FEC695"/>
<path d="M60.0156 89.8313C54.314 89.8313 49.6902 85.2075 49.6902 79.5059V72.1855H70.3411V79.5059C70.3411 85.2095 65.7192 89.8313 60.0156 89.8313Z" fill="#F39555"/>
<path d="M60.043 77.7274C71.7145 77.7274 81.1761 67.5673 81.1761 55.0341C81.1761 42.501 71.7145 32.3408 60.043 32.3408C48.3714 32.3408 38.9098 42.501 38.9098 55.0341C38.9098 67.5673 48.3714 77.7274 60.043 77.7274Z" fill="#FEC695"/>
<path d="M69.3491 36.3084L42.2819 51.242V83.8663L27.5807 72.1838C27.5807 72.1838 25.013 17.0575 66.0824 21.9567L68.7653 26.6234C68.7653 26.6234 92.099 23.2395 92.4485 69.4423L78.214 83.8663L77.7473 48.0924L69.3491 36.3084Z" fill="#7A564A"/>
<path d="M68.9117 57.3675C70.6026 57.3675 71.9734 55.9968 71.9734 54.3058C71.9734 52.6149 70.6026 51.2441 68.9117 51.2441C67.2208 51.2441 65.85 52.6149 65.85 54.3058C65.85 55.9968 67.2208 57.3675 68.9117 57.3675Z" fill="#7A564A"/>
<path d="M51.4124 57.3675C53.1033 57.3675 54.4741 55.9968 54.4741 54.3058C54.4741 52.6149 53.1033 51.2441 51.4124 51.2441C49.7215 51.2441 48.3507 52.6149 48.3507 54.3058C48.3507 55.9968 49.7215 57.3675 51.4124 57.3675Z" fill="#7A564A"/>
</g>
<defs>
<clipPath id="clip0_7223_53965">
<rect width="120" height="120" rx="60" fill="white"/>
</clipPath>
</defs>
</svg>
