<svg width="471" height="413" viewBox="0 0 471 413" fill="none" xmlns="http://www.w3.org/2000/svg">
<g clip-path="url(#clip0_5913_17877)">
<path d="M384.9 24.2925C384.9 24.2925 331.459 -15.1962 263.127 6.51421C194.805 28.2246 167.015 87.0388 128.306 128.36C108.035 150.002 77.7128 159.019 53.4902 176.078C-23.9669 230.595 -10.5055 344.587 50.5732 385.042C103.453 420.056 168.828 420.983 253.361 389.506C337.903 358.029 398.45 338.684 449.861 257.253C501.273 175.832 450.827 78.1989 384.9 24.2925Z" fill="#141ED2"/>
<path opacity="0.85" d="M384.9 24.2925C384.9 24.2925 331.459 -15.1962 263.127 6.51421C194.805 28.2246 167.015 87.0388 128.306 128.36C108.035 150.002 77.7128 159.019 53.4902 176.078C-23.9669 230.595 -10.5055 344.587 50.5732 385.042C103.453 420.056 168.828 420.983 253.361 389.506C337.903 358.029 398.45 338.684 449.861 257.253C501.273 175.832 450.827 78.1989 384.9 24.2925Z" fill="white"/>
<g opacity="0.5">
<path d="M65.1186 103.398H18.2305V44.9088H58.1218L65.1186 50.7429V103.398Z" fill="white" stroke="black" stroke-miterlimit="10" stroke-linejoin="round"/>
<path d="M58.1221 44.9088V50.8415H65.1188L58.1221 44.9088Z" fill="white" stroke="black" stroke-miterlimit="10" stroke-linejoin="round"/>
<path d="M44.1187 49.8264H9.11523V62.6082H44.1187V49.8264Z" fill="black"/>
<path d="M23.4141 66.2644H61.167" stroke="black" stroke-miterlimit="10"/>
<path d="M23.4141 73.2615H61.167" stroke="black" stroke-miterlimit="10"/>
<path d="M23.4141 80.2683H61.167" stroke="black" stroke-miterlimit="10"/>
<path d="M23.4141 87.2653H61.167" stroke="black" stroke-miterlimit="10"/>
<path d="M23.4141 94.2721H61.167" stroke="black" stroke-miterlimit="10"/>
<path d="M19.7976 60.7851V52.4971H18.0928V51.5609H22.5076V52.4971H20.8028V60.7851H19.7976Z" fill="white"/>
<path d="M25.5032 56.8037L23.9658 60.7851H22.9902L24.8528 56.0252L23.1183 51.5609H24.1826L25.6017 55.2467L27.0405 51.5609H28.0062L26.2817 56.0252L28.1245 60.7851H27.0405L25.5032 56.8037Z" fill="white"/>
<path d="M30.2732 60.7851V52.4971H28.5684V51.5609H32.9832V52.4971H31.2784V60.7851H30.2732Z" fill="white"/>
</g>
<g opacity="0.5">
<path d="M446.728 232.064H399.84V173.565H439.721L446.728 179.399V232.064Z" fill="white" stroke="black" stroke-miterlimit="10" stroke-linejoin="round"/>
<path d="M439.722 173.565V179.497H446.728L439.722 173.565Z" fill="white" stroke="black" stroke-miterlimit="10" stroke-linejoin="round"/>
<path d="M425.718 178.492H390.715V191.274H425.718V178.492Z" fill="black"/>
<path d="M405.023 194.92H442.766" stroke="black" stroke-miterlimit="10"/>
<path d="M405.023 201.927H442.766" stroke="black" stroke-miterlimit="10"/>
<path d="M405.023 208.924H442.766" stroke="black" stroke-miterlimit="10"/>
<path d="M405.023 215.931H442.766" stroke="black" stroke-miterlimit="10"/>
<path d="M405.023 222.928H442.766" stroke="black" stroke-miterlimit="10"/>
<path d="M401.407 189.441V181.153H399.702V180.217H404.117V181.153H402.412V189.441H401.407Z" fill="white"/>
<path d="M407.113 185.47L405.575 189.451H404.6L406.462 184.691L404.728 180.227H405.792L407.211 183.913L408.65 180.227H409.616L407.891 184.691L409.734 189.451H408.65L407.113 185.47Z" fill="white"/>
<path d="M411.873 189.441V181.153H410.168V180.217H414.583V181.153H412.878V189.441H411.873Z" fill="white"/>
</g>
<g opacity="0.5">
<path d="M293.45 331.983H246.562V273.484H286.453L293.45 279.318V331.983Z" fill="white" stroke="black" stroke-miterlimit="10" stroke-linejoin="round"/>
<path d="M286.453 273.484V279.417H293.45L286.453 273.484Z" fill="white" stroke="black" stroke-miterlimit="10" stroke-linejoin="round"/>
<path d="M272.45 278.411H237.446V291.193H272.45V278.411Z" fill="black"/>
<path d="M251.755 294.839H289.498" stroke="black" stroke-miterlimit="10"/>
<path d="M251.755 301.846H289.498" stroke="black" stroke-miterlimit="10"/>
<path d="M251.755 308.843H289.498" stroke="black" stroke-miterlimit="10"/>
<path d="M251.755 315.85H289.498" stroke="black" stroke-miterlimit="10"/>
<path d="M251.755 322.847H289.498" stroke="black" stroke-miterlimit="10"/>
<path d="M248.129 289.36V281.072H246.424V280.136H250.839V281.072H249.134V289.36H248.129Z" fill="white"/>
<path d="M253.834 285.389L252.297 289.37H251.321L253.184 284.61L251.449 280.146H252.514L253.933 283.832L255.372 280.146H256.337L254.613 284.61L256.456 289.37H255.372L253.834 285.389Z" fill="white"/>
<path d="M258.604 289.36V281.072H256.899V280.136H261.314V281.072H259.609V289.36H258.604Z" fill="white"/>
</g>
<g opacity="0.5">
<path d="M84.5427 245.309H21.3945V166.538H75.1217L84.5427 174.393V245.309Z" fill="white" stroke="black" stroke-miterlimit="10" stroke-linejoin="round"/>
<path d="M75.1211 166.538V174.531H84.5421L75.1211 166.538Z" fill="white" stroke="black" stroke-miterlimit="10" stroke-linejoin="round"/>
<path d="M56.2596 173.161H9.11523V190.377H56.2596V173.161Z" fill="black"/>
<path d="M28.3809 195.305H79.2207" stroke="black" stroke-miterlimit="10"/>
<path d="M28.3809 204.726H79.2207" stroke="black" stroke-miterlimit="10"/>
<path d="M28.3809 214.157H79.2207" stroke="black" stroke-miterlimit="10"/>
<path d="M28.3809 223.589H79.2207" stroke="black" stroke-miterlimit="10"/>
<path d="M28.3809 233.02H79.2207" stroke="black" stroke-miterlimit="10"/>
<path d="M24.4297 175.496C26.3809 175.496 27.2186 176.649 27.2186 178.532V180.02C27.2186 181.991 26.2923 183.016 24.3312 183.016H23.1092V187.914H21.7197V175.496H24.4297ZM24.3213 181.784C25.3462 181.784 25.8488 181.301 25.8488 180.118V178.473C25.8488 177.339 25.4448 176.768 24.4297 176.768H23.0994V181.794H24.3213V181.784Z" fill="white"/>
<path d="M31.2587 175.496C33.1902 175.496 34.0771 176.669 34.0771 178.581V184.849C34.0771 186.751 33.1902 187.924 31.2587 187.924H28.3516V175.506H31.2587V175.496ZM31.239 186.662C32.2343 186.662 32.7073 186.041 32.7073 184.908V178.522C32.7073 177.389 32.2244 176.768 31.2192 176.768H29.7312V186.672H31.239V186.662Z" fill="white"/>
<path d="M39.6154 181.281V182.543H36.7576V187.924H35.3779V175.506H40.3151V176.768H36.7674V181.291H39.6154V181.281Z" fill="white"/>
</g>
<g opacity="0.5">
<path d="M58.6052 353.082H27.4844V314.264H53.9538L58.6052 318.137V353.082Z" fill="white" stroke="black" stroke-miterlimit="10" stroke-linejoin="round"/>
<path d="M53.9541 314.264V318.196H58.6055L53.9541 314.264Z" fill="white" stroke="black" stroke-miterlimit="10" stroke-linejoin="round"/>
<path d="M44.6609 317.526H21.4336V326.011H44.6609V317.526Z" fill="black"/>
<path d="M30.9336 328.435H55.9741" stroke="black" stroke-miterlimit="10"/>
<path d="M30.9336 333.087H55.9741" stroke="black" stroke-miterlimit="10"/>
<path d="M30.9336 337.728H55.9741" stroke="black" stroke-miterlimit="10"/>
<path d="M30.9336 342.38H55.9741" stroke="black" stroke-miterlimit="10"/>
<path d="M30.9336 347.021H55.9741" stroke="black" stroke-miterlimit="10"/>
<path d="M28.9818 318.679C29.9476 318.679 30.3516 319.25 30.3516 320.177V320.906C30.3516 321.881 29.8983 322.384 28.9227 322.384H28.3216V324.798H27.6416V318.679H28.9818ZM28.9227 321.773C29.4253 321.773 29.6716 321.537 29.6716 320.955V320.147C29.6716 319.585 29.4746 319.309 28.972 319.309H28.3117V321.783H28.9227V321.773Z" fill="white"/>
<path d="M32.342 318.679C33.2979 318.679 33.7315 319.26 33.7315 320.196V323.281C33.7315 324.217 33.2979 324.798 32.342 324.798H30.9131V318.679H32.342ZM32.3321 324.178C32.8249 324.178 33.0614 323.872 33.0614 323.31V320.167C33.0614 319.605 32.8249 319.299 32.3223 319.299H31.5931V324.178H32.3321Z" fill="white"/>
<path d="M36.4612 321.527V322.148H35.052V324.798H34.3721V318.679H36.8062V319.299H35.0619V321.527H36.4612Z" fill="white"/>
</g>
<g opacity="0.5">
<path d="M454.237 64.9143H423.116V26.0859H449.586L454.237 29.9589V64.9143Z" fill="white" stroke="black" stroke-miterlimit="10" stroke-linejoin="round"/>
<path d="M449.586 26.0859V30.0279H454.237L449.586 26.0859Z" fill="white" stroke="black" stroke-miterlimit="10" stroke-linejoin="round"/>
<path d="M440.293 29.3578H417.065V37.8429H440.293V29.3578Z" fill="black"/>
<path d="M426.556 40.2672H451.606" stroke="black" stroke-miterlimit="10"/>
<path d="M426.556 44.9088H451.606" stroke="black" stroke-miterlimit="10"/>
<path d="M426.556 49.5603H451.606" stroke="black" stroke-miterlimit="10"/>
<path d="M426.556 54.202H451.606" stroke="black" stroke-miterlimit="10"/>
<path d="M426.556 58.8535H451.606" stroke="black" stroke-miterlimit="10"/>
<path d="M424.614 30.5107C425.579 30.5107 425.983 31.0823 425.983 32.0087V32.738C425.983 33.7136 425.53 34.2162 424.555 34.2162H423.953V36.6306H423.273V30.5107H424.614ZM424.555 33.6052C425.057 33.6052 425.303 33.3687 425.303 32.7872V31.9791C425.303 31.4174 425.106 31.1415 424.604 31.1415H423.944V33.615H424.555V33.6052Z" fill="white"/>
<path d="M427.974 30.5107C428.93 30.5107 429.363 31.0922 429.363 32.0284V35.113C429.363 36.0492 428.93 36.6306 427.974 36.6306H426.545V30.5107H427.974ZM427.964 36.0098C428.457 36.0098 428.693 35.7043 428.693 35.1426V31.9988C428.693 31.4371 428.457 31.1316 427.954 31.1316H427.225V36.0098H427.964Z" fill="white"/>
<path d="M432.093 33.3588V33.9797H430.684V36.6306H430.004V30.5107H432.438V31.1316H430.694V33.3588H432.093Z" fill="white"/>
</g>
<path d="M399.061 10.8995H69.4648V268.517H399.061V10.8995Z" fill="#263238" stroke="#263238" stroke-miterlimit="10"/>
<path d="M410.749 0.827759H80.1572V259.056H410.749V0.827759Z" fill="#141ED2"/>
<path d="M410.749 0.827759H80.1572V259.056H410.749V0.827759Z" fill="white" stroke="#263238" stroke-miterlimit="10" stroke-linecap="round" stroke-linejoin="round"/>
<path d="M159.122 37.4191H89.1543V81.7662H159.122V37.4191Z" fill="white" stroke="#263238" stroke-miterlimit="10" stroke-linecap="round" stroke-linejoin="round"/>
<path d="M108.371 56.646H137.935" stroke="#263238" stroke-miterlimit="10"/>
<path d="M100.979 64.0372H149.76" stroke="#263238" stroke-miterlimit="10"/>
<path d="M159.122 90.1429H89.1543V134.49H159.122V90.1429Z" fill="white" stroke="#263238" stroke-miterlimit="10" stroke-linecap="round" stroke-linejoin="round"/>
<path d="M96.4365 100.668H120.974" stroke="#263238" stroke-miterlimit="10"/>
<path d="M96.4365 106.542H120.974" stroke="#263238" stroke-miterlimit="10"/>
<path d="M96.4365 112.415H120.974" stroke="#263238" stroke-miterlimit="10"/>
<path d="M96.4365 118.289H120.974" stroke="#263238" stroke-miterlimit="10"/>
<path d="M96.4365 124.162H120.974" stroke="#263238" stroke-miterlimit="10"/>
<path d="M126.809 100.668H151.356" stroke="#263238" stroke-miterlimit="10"/>
<path d="M126.809 106.542H151.356" stroke="#263238" stroke-miterlimit="10"/>
<path d="M126.809 112.415H151.356" stroke="#263238" stroke-miterlimit="10"/>
<path d="M126.809 118.289H151.356" stroke="#263238" stroke-miterlimit="10"/>
<path d="M126.809 124.162H151.356" stroke="#263238" stroke-miterlimit="10"/>
<path d="M159.122 142.867H89.1543V187.214H159.122V142.867Z" fill="white" stroke="#263238" stroke-miterlimit="10" stroke-linecap="round" stroke-linejoin="round"/>
<path d="M96.4365 153.392H120.974" stroke="#263238" stroke-miterlimit="10"/>
<path d="M96.4365 159.265H120.974" stroke="#263238" stroke-miterlimit="10"/>
<path d="M96.4365 165.139H120.974" stroke="#263238" stroke-miterlimit="10"/>
<path d="M96.4365 171.012H120.974" stroke="#263238" stroke-miterlimit="10"/>
<path d="M96.4365 176.886H120.974" stroke="#263238" stroke-miterlimit="10"/>
<path d="M126.809 153.392H151.356" stroke="#263238" stroke-miterlimit="10"/>
<path d="M126.809 159.265H151.356" stroke="#263238" stroke-miterlimit="10"/>
<path d="M126.809 165.139H151.356" stroke="#263238" stroke-miterlimit="10"/>
<path d="M126.809 171.012H151.356" stroke="#263238" stroke-miterlimit="10"/>
<path d="M126.809 176.886H151.356" stroke="#263238" stroke-miterlimit="10"/>
<path d="M159.122 195.591H89.1543V239.938H159.122V195.591Z" fill="white" stroke="#263238" stroke-miterlimit="10" stroke-linecap="round" stroke-linejoin="round"/>
<path d="M96.4365 206.116H120.974" stroke="#263238" stroke-miterlimit="10"/>
<path d="M96.4365 211.989H120.974" stroke="#263238" stroke-miterlimit="10"/>
<path d="M96.4365 217.863H120.974" stroke="#263238" stroke-miterlimit="10"/>
<path d="M96.4365 223.736H120.974" stroke="#263238" stroke-miterlimit="10"/>
<path d="M96.4365 229.61H120.974" stroke="#263238" stroke-miterlimit="10"/>
<path d="M126.809 206.116H151.356" stroke="#263238" stroke-miterlimit="10"/>
<path d="M126.809 211.989H151.356" stroke="#263238" stroke-miterlimit="10"/>
<path d="M126.809 217.863H151.356" stroke="#263238" stroke-miterlimit="10"/>
<path d="M126.809 223.736H151.356" stroke="#263238" stroke-miterlimit="10"/>
<path d="M126.809 229.61H151.356" stroke="#263238" stroke-miterlimit="10"/>
<path d="M410.739 0.827759H168.977V259.056H410.739V0.827759Z" fill="#B8B8B8" stroke="#263238" stroke-miterlimit="10" stroke-linecap="round" stroke-linejoin="round"/>
<path d="M394.647 49.7476H175.875V198.557H394.647V49.7476Z" fill="white" stroke="#263238" stroke-miterlimit="10" stroke-linecap="round" stroke-linejoin="round"/>
<path d="M226.705 108.808H346.773" stroke="#263238" stroke-miterlimit="10"/>
<path d="M210.386 121.866H363.092" stroke="#263238" stroke-miterlimit="10"/>
<path d="M410.739 0.827759H402.195V259.056H410.739V0.827759Z" fill="#DBDBDB" stroke="#263238" stroke-miterlimit="10"/>
<path d="M410.739 80.83H402.195V150.613H410.739V80.83Z" fill="#878787"/>
<path d="M410.749 0.827759H80.1572V17.6008H410.749V0.827759Z" fill="#141ED2" stroke="#263238" stroke-miterlimit="10" stroke-linecap="round" stroke-linejoin="round"/>
<path d="M314.44 3.68567H101.896V13.1464H314.44V3.68567Z" fill="white"/>
<path d="M394.636 23.5334H378.229" stroke="#263238" stroke-miterlimit="10"/>
<path d="M394.636 28.5792H378.229" stroke="#263238" stroke-miterlimit="10"/>
<path d="M394.636 33.6348H378.229" stroke="#263238" stroke-miterlimit="10"/>
<path d="M414.355 364.553L418.347 353.131" stroke="#474747" stroke-miterlimit="10" stroke-linecap="round" stroke-linejoin="round"/>
<path d="M414.642 333.737V376.251" stroke="#474747" stroke-miterlimit="10" stroke-linecap="round" stroke-linejoin="round"/>
<path d="M408.098 355.792C408.098 355.792 402.175 349.327 396.253 350.411C390.33 351.486 387.64 358.492 387.64 362.799C387.64 367.106 393.562 381.109 393.562 381.109C393.562 381.109 397.869 376.261 407.566 369.264C417.253 362.257 417.795 355.26 408.098 355.792Z" fill="#6268E1" stroke="#474747" stroke-miterlimit="10" stroke-linecap="round" stroke-linejoin="round"/>
<path d="M408.098 355.792C408.098 355.792 400.559 359.557 396.253 368.18" stroke="#474747" stroke-miterlimit="10" stroke-linecap="round" stroke-linejoin="round"/>
<path d="M417.755 348.204C417.755 348.204 422.653 342.892 427.531 343.789C432.409 344.686 434.607 350.461 434.607 354.008C434.597 357.556 429.689 369.077 429.689 369.077C429.689 369.077 426.152 365.075 418.179 359.291C410.197 353.516 409.763 347.741 417.755 348.204Z" fill="#6268E1" stroke="#474747" stroke-miterlimit="10" stroke-linecap="round" stroke-linejoin="round"/>
<path d="M417.756 348.204C417.756 348.204 423.954 351.328 427.492 358.433" stroke="#474747" stroke-miterlimit="10" stroke-linecap="round" stroke-linejoin="round"/>
<path d="M413.784 341.148L421.205 330.307" stroke="#474747" stroke-miterlimit="10" stroke-linecap="round" stroke-linejoin="round"/>
<path d="M412.542 338.014C412.542 338.014 412.424 330.79 408.176 328.218C403.939 325.646 398.45 328.494 396.095 331.145C393.739 333.806 389.738 345.671 389.738 345.671C389.738 345.671 395.04 345.041 404.845 346.016C414.661 347.002 418.809 342.981 412.542 338.014Z" fill="#6268E1" stroke="#474747" stroke-miterlimit="10" stroke-linecap="round" stroke-linejoin="round"/>
<path d="M412.542 338.014C412.542 338.014 405.831 336.22 398.47 339.177" stroke="#474747" stroke-miterlimit="10" stroke-linecap="round" stroke-linejoin="round"/>
<path d="M418.918 328.336C418.918 328.336 419.007 323.025 422.131 321.132C425.255 319.24 429.285 321.33 431.02 323.291C432.754 325.242 435.691 333.983 435.691 333.983C435.691 333.983 431.788 333.52 424.575 334.239C417.361 334.949 414.306 331.993 418.918 328.336Z" fill="#6268E1" stroke="#474747" stroke-miterlimit="10" stroke-linecap="round" stroke-linejoin="round"/>
<path d="M418.918 328.336C418.918 328.336 423.855 327.016 429.275 329.194" stroke="#474747" stroke-miterlimit="10" stroke-linecap="round" stroke-linejoin="round"/>
<path d="M432.774 372.595H394.528L398.401 412.419H428.901L432.774 372.595Z" fill="white" stroke="#474747" stroke-miterlimit="10" stroke-linecap="round" stroke-linejoin="round"/>
<path d="M422.634 389.949C422.634 390.895 423.402 391.664 424.348 391.664C425.295 391.664 426.063 390.895 426.063 389.949C426.063 389.003 425.295 388.235 424.348 388.235C423.402 388.235 422.634 389.003 422.634 389.949Z" fill="#263238" stroke="#474747" stroke-miterlimit="10" stroke-linecap="round" stroke-linejoin="round"/>
<path d="M416.356 389.949C416.356 390.895 417.125 391.664 418.071 391.664C419.017 391.664 419.786 390.895 419.786 389.949C419.786 389.003 419.017 388.235 418.071 388.235C417.125 388.235 416.356 389.003 416.356 389.949Z" fill="#263238" stroke="#474747" stroke-miterlimit="10" stroke-linecap="round" stroke-linejoin="round"/>
<path d="M395.799 385.662H431.503L431.67 383.958H395.632L395.799 385.662Z" fill="#263238" stroke="#474747" stroke-miterlimit="10" stroke-linecap="round" stroke-linejoin="round"/>
<path d="M429.975 401.361L430.694 393.941H396.607L397.327 401.361H429.975Z" fill="#263238" stroke="#474747" stroke-miterlimit="10" stroke-linecap="round" stroke-linejoin="round"/>
<path d="M428.911 389.949C428.911 390.895 429.68 391.664 430.626 391.664C430.724 391.664 430.833 391.654 430.931 391.635L431.247 388.363C431.05 388.284 430.843 388.244 430.626 388.244C429.68 388.235 428.911 389.003 428.911 389.949Z" fill="#263238" stroke="#474747" stroke-miterlimit="10" stroke-linecap="round" stroke-linejoin="round"/>
<path d="M410.079 389.949C410.079 390.895 410.848 391.664 411.794 391.664C412.74 391.664 413.508 390.895 413.508 389.949C413.508 389.003 412.74 388.235 411.794 388.235C410.848 388.235 410.079 389.003 410.079 389.949Z" fill="#263238" stroke="#474747" stroke-miterlimit="10" stroke-linecap="round" stroke-linejoin="round"/>
<path d="M397.524 389.949C397.524 390.895 398.293 391.664 399.239 391.664C400.185 391.664 400.954 390.895 400.954 389.949C400.954 389.003 400.185 388.235 399.239 388.235C398.293 388.235 397.524 389.003 397.524 389.949Z" fill="#263238" stroke="#474747" stroke-miterlimit="10" stroke-linecap="round" stroke-linejoin="round"/>
<path d="M403.802 389.949C403.802 390.895 404.57 391.664 405.516 391.664C406.462 391.664 407.231 390.895 407.231 389.949C407.231 389.003 406.462 388.235 405.516 388.235C404.57 388.235 403.802 389.003 403.802 389.949Z" fill="#263238" stroke="#474747" stroke-miterlimit="10" stroke-linecap="round" stroke-linejoin="round"/>
<path d="M153.475 412.507C158.205 406.673 166.66 396.385 169.558 393.694C173.667 389.88 177.491 385.18 177.491 385.18C177.491 385.18 172.494 394.877 181.019 402.514C189.533 410.152 214.8 404.278 220.378 400.169C225.955 396.059 226.547 385.485 221.55 369.914C216.554 354.343 209.508 325.557 209.804 315.574C210.099 305.591 203.635 277.386 200.698 269.749C197.762 262.111 185.719 256.533 173.381 253.882C161.043 251.241 127.853 265.048 127.853 265.048L121.093 267.689C121.093 267.689 93.4803 282.964 86.1386 289.133C78.7969 295.303 82.3249 312.342 80.5609 328.79C78.7969 345.238 78.7969 364.336 78.7969 364.336C78.7969 364.336 61.7583 379.316 49.4204 396.355C43.4879 404.554 40.0684 409.541 38.1172 412.527H153.475V412.507Z" fill="#141ED2" stroke="#263238" stroke-miterlimit="10"/>
<path d="M214.051 380.686C214.051 380.686 204.245 378.38 193.859 385.298C183.472 392.216 186.359 402.603 195.593 404.909C204.827 407.215 216.938 407.215 223.285 397.41C229.631 387.604 218.673 380.114 214.051 380.686Z" fill="white" stroke="#263238" stroke-miterlimit="10"/>
<path d="M216.505 380.607C216.505 380.607 208.848 378.803 200.738 384.214C192.628 389.624 194.884 397.725 202.088 399.528C209.292 401.332 218.752 401.332 223.709 393.675C228.666 386.017 220.102 380.154 216.505 380.607Z" fill="white" stroke="#263238" stroke-miterlimit="10"/>
<path d="M193.701 314.914C194.026 309.553 194.233 305.907 194.233 305.581" stroke="#263238" stroke-miterlimit="10"/>
<path d="M177.49 385.18C177.49 385.18 188.064 374.901 189.828 363.154C190.912 355.91 192.331 336.171 193.267 321.812" stroke="#263238" stroke-miterlimit="10"/>
<path d="M206.197 334.821C203.536 343.375 198.609 356.206 191.001 364.908" stroke="#263238" stroke-miterlimit="10"/>
<path d="M208.621 325.843C208.621 325.843 208.207 327.814 207.33 330.968" stroke="#263238" stroke-miterlimit="10"/>
<path d="M207.695 359.33C203.783 363.775 197.644 369.688 189.523 374.3" stroke="#263238" stroke-miterlimit="10"/>
<path d="M212.731 352.865C212.731 352.865 211.538 354.748 209.223 357.536" stroke="#263238" stroke-miterlimit="10"/>
<path d="M223.019 377.828C223.019 377.828 209.508 372.831 193.061 378.419C176.614 383.997 178.378 396.631 179.846 398.691" stroke="#263238" stroke-miterlimit="10"/>
<path d="M178.437 173.141C178.437 173.141 178.437 169.682 173.677 162.32C168.917 154.969 144.685 157.994 136.466 166.213C128.247 174.432 139.925 184.819 134.732 190.88C129.538 196.941 112.234 193.905 106.607 204.726C100.98 215.547 115.259 220.74 118.284 224.633C121.31 228.526 113.091 229.827 113.958 233.719C114.825 237.612 128.237 238.046 128.237 238.046C128.237 238.046 119.585 240.637 123.911 244.106C128.237 247.565 136.023 251.024 144.675 250.601C153.327 250.167 151.169 233.296 150.302 220.75C149.435 208.205 160.689 194.359 173.667 195.65C186.646 196.951 200.491 211.664 198.333 218.148C196.165 224.643 201.792 216.848 213.48 209.496C225.157 202.144 219.974 186.997 217.372 183.972C214.78 180.946 206.118 180.079 204.394 174.452C202.659 168.825 198.767 163.197 191.415 163.197C184.054 163.188 185.788 172.707 178.437 173.141Z" fill="#141ED2" stroke="#263238" stroke-miterlimit="10"/>
<path d="M141.354 250.936C141.354 250.936 135.777 252.404 133.421 255.341C131.076 258.278 121.675 263.57 121.083 267.679C120.492 271.789 124.02 292.938 131.066 301.462C138.112 309.977 141.64 310.568 141.64 310.568C141.64 310.568 143.7 302.339 145.168 301.758C146.636 301.176 160.147 309.691 160.147 309.691C160.147 309.691 162.492 295.884 163.961 295.884C165.429 295.884 170.13 300.585 170.13 300.585C170.13 300.585 171.894 288.838 170.721 279.732C169.548 270.626 161.911 259.46 156.333 255.647C150.756 251.823 146.351 248.295 141.354 250.936Z" fill="white" stroke="#263238" stroke-miterlimit="10"/>
<path d="M144.251 239.78L133.431 265.738C133.431 265.738 136.22 277.83 139.885 285.596C144.882 296.17 157.23 301.216 157.23 301.216C157.23 301.216 156.796 292.129 161.122 283.477C165.448 274.824 169.774 269.197 169.774 269.197C169.774 269.197 150.312 250.157 144.251 239.78Z" fill="white" stroke="#263238" stroke-miterlimit="10"/>
<path d="M147.05 249.615C147.05 249.615 152.026 278.066 159.141 286.955L165.902 274.154L148.124 246.412L147.05 249.615Z" fill="#263238" stroke="#263238" stroke-miterlimit="10"/>
<path d="M142.822 334.062C142.822 334.062 160.156 288.828 162.502 286.187C164.847 283.546 170.139 278.845 172.485 275.613C174.83 272.38 181.295 264.161 183.65 264.161C185.995 264.161 191.583 266.221 194.224 266.802C196.865 267.394 198.629 268.271 198.924 272.676C199.22 277.081 195.396 277.377 195.396 277.377L193.928 275.613C193.928 275.613 183.354 291.479 180.122 293.529C176.89 295.588 173.953 296.466 173.953 296.466L159.851 349.042L142.822 334.062Z" fill="white" stroke="#263238" stroke-miterlimit="10"/>
<path d="M203.959 202.883C203.959 202.883 208.069 206.303 205.329 217.941C202.59 229.58 201.91 235.395 201.91 242.244C201.91 249.093 199.86 258.672 194.036 264.831C188.222 270.991 181.028 279.889 172.474 279.545C158.924 279.003 152.282 260.377 147.838 251.823C143.393 243.269 142.358 231.63 142.358 226.84C142.358 222.051 143.038 210.757 149.207 202.203C155.366 193.649 172.139 190.229 179.323 191.254C186.507 192.279 195.406 193.304 203.959 202.883Z" fill="white" stroke="#263238" stroke-miterlimit="10"/>
<path d="M145.443 233.69C145.443 233.69 146.813 228.9 152.972 226.16C159.131 223.421 162.895 218.631 160.846 214.187C158.796 209.742 159.821 205.288 168.72 202.893C177.618 200.498 180.013 209.397 188.567 208.027C197.12 206.658 199.515 203.238 203.969 205.288C208.414 207.338 206.364 213.162 206.364 213.162C206.364 213.162 211.843 203.238 201.23 191.944C190.626 180.65 164.955 176.541 147.158 189.549C129.36 202.558 139.629 233.01 139.629 233.01C139.629 233.01 140.654 234.37 145.443 233.69Z" fill="#141ED2"/>
<path d="M188.222 239.504L187.197 259.352L180.013 256.612" stroke="#263238" stroke-miterlimit="10"/>
<path d="M182.743 266.536C182.743 266.536 175.894 267.561 172.819 262.771" stroke="#263238" stroke-miterlimit="10"/>
<path d="M175.194 239.287C174.879 241.248 173.785 242.697 172.76 242.53C171.736 242.362 171.164 240.637 171.479 238.676C171.795 236.715 172.888 235.266 173.913 235.434C174.938 235.611 175.51 237.336 175.194 239.287Z" fill="#263238"/>
<path d="M197.12 239.849C196.805 241.81 195.711 243.259 194.686 243.091C193.661 242.924 193.09 241.199 193.405 239.238C193.72 237.277 194.814 235.828 195.839 235.996C196.864 236.163 197.436 237.888 197.12 239.849Z" fill="#263238"/>
<path d="M166.453 230.359C166.453 230.359 173.814 223.943 179.747 228.93" stroke="#263238" stroke-width="2" stroke-miterlimit="10" stroke-linecap="round"/>
<path d="M192.331 228.93C192.331 228.93 197.317 224.653 201.594 228.693" stroke="#263238" stroke-width="2" stroke-miterlimit="10" stroke-linecap="round"/>
<path d="M184.497 234.626C184.497 234.626 174.051 232.96 157.9 235.572C157.9 235.572 156.471 246.491 164.069 251.241C171.667 255.991 179.028 251.478 180.93 248.866C184.694 243.712 184.497 234.626 184.497 234.626Z" stroke="#263238" stroke-width="2" stroke-miterlimit="10"/>
<path d="M208.473 233.138C208.473 233.138 201.004 231.551 189.454 234.044C189.454 234.044 188.439 244.491 193.869 249.024C199.309 253.567 204.571 249.251 205.931 246.757C208.611 241.82 208.473 233.138 208.473 233.138Z" stroke="#263238" stroke-width="2" stroke-miterlimit="10"/>
<path d="M184.497 234.626C184.497 234.626 185.62 231.551 189.454 234.044" stroke="#263238" stroke-width="2" stroke-miterlimit="10"/>
<path d="M141.994 229.166L157.899 235.582" stroke="#263238" stroke-width="2" stroke-miterlimit="10"/>
<path d="M146.813 235.395C146.813 235.395 144.418 221.361 137.914 228.21C131.41 235.059 137.234 241.899 140.309 244.983C143.393 248.068 147.158 244.983 147.158 244.983" fill="white"/>
<path d="M146.813 235.395C146.813 235.395 144.418 221.361 137.914 228.21C131.41 235.059 137.234 241.899 140.309 244.983C143.393 248.068 147.158 244.983 147.158 244.983" stroke="#263238" stroke-miterlimit="10"/>
<path d="M121.171 304.537C121.171 304.537 127.547 315.564 129.607 329.657C131.667 343.759 131.371 346.4 131.371 346.4L141.649 334.062C141.649 334.062 158.392 345.809 161.033 349.633C163.674 353.447 163.97 354.629 163.97 354.629C163.97 354.629 163.97 377.542 154.273 391.349C144.576 405.155 139.885 405.155 130.484 405.155C121.083 405.155 109.04 396.345 102.576 381.661C96.1112 366.978 90.8291 345.533 89.6564 343.474C88.4837 341.414 84.6602 329.667 84.6602 329.667" fill="#141ED2"/>
<path d="M121.171 304.537C121.171 304.537 127.547 315.564 129.607 329.657C131.667 343.759 131.371 346.4 131.371 346.4L141.649 334.062C141.649 334.062 158.392 345.809 161.033 349.633C163.674 353.447 163.97 354.629 163.97 354.629C163.97 354.629 163.97 377.542 154.273 391.349C144.576 405.155 139.885 405.155 130.484 405.155C121.083 405.155 109.04 396.345 102.576 381.661C96.1112 366.978 90.8291 345.533 89.6564 343.474C88.4837 341.414 84.6602 329.667 84.6602 329.667" stroke="#263238" stroke-miterlimit="10"/>
<path d="M117.318 363.617C116.254 364.869 115.318 365.933 114.628 366.672" stroke="#263238" stroke-miterlimit="10"/>
<path d="M131.371 346.401C131.371 346.401 125.882 353.299 120.955 359.261" stroke="#263238" stroke-miterlimit="10"/>
<path d="M132.839 344.932C132.839 344.932 141.067 346.992 151.05 352.865C161.033 358.739 161.92 365.204 164.856 362.848C167.793 360.503 170.148 353.151 167.202 349.042C164.265 344.932 155.159 335.235 148.695 332.298C142.23 329.361 139.589 331.125 137.53 335.531C135.48 339.936 130.779 342.291 132.839 344.932Z" fill="white" stroke="#263238" stroke-miterlimit="10"/>
<path d="M132.465 368.978C132.672 372.368 133.056 375.334 133.716 377.246" stroke="#263238" stroke-miterlimit="10"/>
<path d="M132.839 344.932C132.839 344.932 132.139 354.777 132.287 363.952" stroke="#263238" stroke-miterlimit="10"/>
<path d="M142.822 349.928C142.822 349.928 144.882 361.38 147.227 366.376" stroke="#263238" stroke-miterlimit="10"/>
<path d="M212.445 378.419C212.445 378.419 202.462 396.04 203.931 398.099C205.399 400.159 237.998 398.099 237.998 398.099L239.762 391.053C239.762 391.053 246.522 393.694 251.804 393.694C257.086 393.694 252.977 392.226 251.213 390.462C249.449 388.698 239.171 382.233 238.294 381.651C237.407 381.06 220.368 376.655 212.445 378.419Z" fill="white" stroke="#263238" stroke-miterlimit="10"/>
<path d="M233.72 376.389C233.72 376.389 238.441 374.97 239.702 377.966C240.964 380.952 240.333 393.704 239.86 397.005C239.387 400.307 237.189 400.149 236.243 397.005C235.297 393.862 233.1 376.862 233.1 376.862L233.72 376.389Z" fill="white" stroke="#263238" stroke-miterlimit="10"/>
<path d="M223.807 377.808C223.807 377.808 230.892 372.93 232.932 375.443C234.982 377.966 236.864 397.794 237.495 399.203C238.125 400.622 234.824 401.726 233.563 400.307C232.301 398.888 228.685 391.654 227.581 388.974C226.487 386.303 223.807 377.808 223.807 377.808Z" fill="white" stroke="#263238" stroke-miterlimit="10"/>
<path d="M209.804 383.159C209.804 383.159 213.736 375.916 217.047 373.876C220.348 371.826 223.975 375.61 225.699 378.439C227.434 381.267 228.843 388.668 229.631 392.285C230.42 395.902 232.617 399.991 231.366 400.464C230.104 400.937 225.226 396.848 223.807 394.64C222.388 392.433 218.929 383.938 218.929 383.938" fill="white"/>
<path d="M209.804 383.159C209.804 383.159 213.736 375.916 217.047 373.876C220.348 371.826 223.975 375.61 225.699 378.439C227.434 381.267 228.843 388.668 229.631 392.285C230.42 395.902 232.617 399.991 231.366 400.464C230.104 400.937 225.226 396.848 223.807 394.64C222.388 392.433 218.929 383.938 218.929 383.938" stroke="#263238" stroke-miterlimit="10"/>
<path d="M216.258 396.848C216.258 396.848 210.592 391.339 208.7 389.604C206.808 387.87 204.137 387.091 202.245 389.131C200.353 391.181 199.417 393.694 202.245 396.375C205.073 399.045 211.844 402.514 216.249 402.514C220.654 402.514 219.865 400.307 218.771 399.055C217.668 397.794 216.258 396.848 216.258 396.848Z" fill="white" stroke="#263238" stroke-miterlimit="10"/>
<path d="M160.193 412.417H366.696V406.514H160.193V412.417Z" fill="#B8B8B8" stroke="#263238" stroke-miterlimit="10" stroke-linecap="round" stroke-linejoin="round"/>
<path d="M160.195 412.417H232.686V406.514H160.195V412.417Z" fill="#263238" stroke="#263238" stroke-miterlimit="10" stroke-linecap="round" stroke-linejoin="round"/>
<path d="M226.843 406.516H360.924L368.67 317.338C369.035 313.091 365.891 309.651 361.654 309.651H242.945C238.698 309.651 234.953 313.091 234.588 317.338L226.843 406.516Z" fill="#263238" stroke="#263238" stroke-miterlimit="10" stroke-linecap="round" stroke-linejoin="round"/>
<path d="M229.415 406.516H363.497L371.242 317.338C371.607 313.091 368.463 309.651 364.226 309.651H245.517C241.27 309.651 237.525 313.091 237.161 317.338L229.415 406.516Z" fill="#B8B8B8" stroke="#263238" stroke-miterlimit="10" stroke-linecap="round" stroke-linejoin="round"/>
<path d="M297.353 355.26C297.757 350.618 301.846 346.854 306.488 346.854C311.129 346.854 314.569 350.618 314.164 355.26C313.76 359.902 309.671 363.666 305.029 363.666C300.388 363.666 296.949 359.902 297.353 355.26Z" fill="#263238" stroke="#263238" stroke-miterlimit="10" stroke-linecap="round" stroke-linejoin="round"/>
<path d="M468.586 412.419H6.79004" stroke="#263238" stroke-miterlimit="10"/>
</g>
<defs>
<clipPath id="clip0_5913_17877">
<rect width="471" height="413" fill="white"/>
</clipPath>
</defs>
</svg>
