<svg width="27" height="26" viewBox="0 0 27 26" fill="none" xmlns="http://www.w3.org/2000/svg">
<path fill-rule="evenodd" clip-rule="evenodd" d="M15.8719 18.861C16.267 18.6917 16.7261 18.7373 17.0768 18.9805C17.3705 19.1877 17.554 19.5086 17.5784 19.8577C17.5745 19.8614 17.9633 24.2433 17.9633 24.3404C17.9939 24.7052 17.8862 25.0684 17.66 25.3631C17.4108 25.6941 17.0346 25.9163 16.6144 25.9807C16.1943 26.0452 15.7647 25.9465 15.4205 25.7065C14.953 25.3675 14.7063 24.8172 14.7711 24.2583C14.7711 24.2471 15.1599 19.8017 15.1599 19.8017C15.2055 19.3887 15.4768 19.0302 15.8719 18.861ZM8.57513 16.3425C9.04874 15.7624 9.8839 15.5853 10.568 15.9199C10.8539 16.0642 11.0892 16.2862 11.2446 16.5581L13.9391 20.9438C14.2296 21.4153 14.0915 22.0191 13.6254 22.3319C13.1594 22.6448 12.5213 22.5622 12.1583 22.142L8.62394 18.3012C8.12197 17.7435 8.10152 16.9227 8.57513 16.3425ZM6.41158 18.0586C6.62073 18.0165 6.83766 18.0268 7.04146 18.0885C7.67839 18.2894 8.02609 18.9469 7.8191 19.5591C7.70259 19.8894 7.4411 20.154 7.10367 20.2832L2.76837 22.0188C2.19022 22.2484 1.52574 22.1338 1.06693 21.7254C0.608125 21.3171 0.438959 20.6897 0.633773 20.1189C0.823666 19.5861 1.29479 19.1908 1.87021 19.0813L6.41158 18.0586ZM20.3701 13.8409C20.7335 13.7641 21.1127 13.8695 21.3771 14.1208C21.6367 14.3723 21.7459 14.7329 21.6674 15.0788C21.5889 15.4247 21.3333 15.709 20.9883 15.834L16.1009 17.8757C15.3939 18.1679 14.5704 17.9362 14.1397 17.3237C13.709 16.7113 13.7929 15.8914 14.3395 15.3712C14.5692 15.1544 14.8597 15.0065 15.1755 14.9457L20.3506 13.826L20.3701 13.8409ZM5.85946 11.6275C6.2522 10.9909 7.06149 10.7131 7.78571 10.9661C8.50993 11.2192 8.94378 11.9314 8.81835 12.6614C8.7631 12.9659 8.61726 13.2485 8.39843 13.4751L4.89909 17.2897H4.87187C4.55041 17.6386 4.02728 17.7411 3.5891 17.5412C3.15091 17.3412 2.90342 16.8871 2.98222 16.4275C3.00456 16.2866 3.05755 16.1518 3.13775 16.0319C3.13775 16.0207 5.85946 11.6275 5.85946 11.6275ZM20.1948 10.1392L20.409 10.1719L24.9892 11.1983C25.3536 11.2829 25.6748 11.4893 25.8952 11.7806C26.1456 12.1106 26.249 12.5227 26.1826 12.9259C26.1163 13.3292 25.8855 13.6906 25.5413 13.9305C25.0623 14.2532 24.4411 14.3085 23.9083 14.076L19.608 12.3554C19.4146 12.2725 19.2461 12.1441 19.1181 11.9821C18.9285 11.7333 18.8499 11.4222 18.8995 11.1177C18.9491 10.8131 19.1229 10.5399 19.3825 10.3585C19.6798 10.1552 20.0548 10.087 20.409 10.1719L20.1948 10.1392ZM15.8598 4.93517C16.3968 4.67468 17.052 4.87992 17.3256 5.39427C17.3941 5.52176 17.4338 5.66165 17.4423 5.80484C17.4423 5.81604 17.9478 10.896 17.9478 10.896C18.017 11.6309 17.5326 12.3094 16.7937 12.5127C16.0548 12.716 15.2696 12.3868 14.9228 11.7283C14.7795 11.4511 14.7228 11.14 14.7595 10.8325C14.7595 10.825 15.2688 5.76752 15.2688 5.76752C15.3071 5.4122 15.5293 5.0993 15.8598 4.93517ZM1.60581 4.88665C2.19128 4.89828 2.72728 5.20446 3.01722 5.69287L5.43176 9.51494C5.53784 9.69216 5.59411 9.89281 5.59507 10.0972C5.59507 10.7404 5.05194 11.2617 4.38196 11.2617C4.01901 11.2581 3.67619 11.1011 3.44491 10.8325H3.4488L0.388819 7.42474C0.137666 7.14877 -0.00050743 6.79462 1.40034e-06 6.42817C1.40034e-06 6.01933 0.169186 5.62724 0.470334 5.33815C0.771482 5.04906 1.17993 4.88665 1.60581 4.88665ZM6.30045 5.91671L6.44657 5.93548L11.6489 7.05523C12.3964 7.22224 12.9163 7.8736 12.8897 8.60987C12.8632 9.34613 12.2977 9.96148 11.5401 10.0785C11.2211 10.123 10.8956 10.0776 10.603 9.94791L5.73115 7.90623L5.73893 7.92863C5.4003 7.78298 5.15966 7.48477 5.09738 7.13361C5.00422 6.56163 5.41145 6.02536 6.00721 5.93548C6.1522 5.90733 6.30159 5.90733 6.44657 5.93548L6.30045 5.91671ZM14.9772 0.0754693C15.82 -0.186669 16.7247 0.25593 16.999 1.06458C17.1687 1.60255 17.0314 2.18653 16.6374 2.60237L13.5969 5.98773C13.4537 6.1407 13.2715 6.25519 13.0681 6.31993C12.4315 6.51842 11.7476 6.18435 11.5401 5.57343C11.4323 5.23928 11.482 4.87659 11.6762 4.58058C11.68 4.57312 14.0518 0.821967 14.1024 0.73612C14.3005 0.42101 14.6115 0.186107 14.9772 0.0754693Z" fill="#D94D4D"/>
</svg>
