<svg width="376" height="44" viewBox="0 0 376 44" fill="none" xmlns="http://www.w3.org/2000/svg">
<mask id="path-1-inside-1_7384_996" fill="white">
<path d="M0 8C0 3.58172 3.58172 0 8 0H368C372.418 0 376 3.58172 376 8V36C376 40.4183 372.418 44 368 44H8C3.58172 44 0 40.4183 0 36V8Z"/>
</mask>
<path d="M0 8C0 3.58172 3.58172 0 8 0H368C372.418 0 376 3.58172 376 8V36C376 40.4183 372.418 44 368 44H8C3.58172 44 0 40.4183 0 36V8Z" fill="#FFE8E7"/>
<path d="M19.724 27.126C21.586 27.126 22.972 26.048 22.972 24.382C22.972 23.262 22.37 22.464 21.446 22.044V22.002C22.23 21.54 22.692 20.77 22.692 19.846C22.692 18.208 21.306 17.27 19.598 17.27C18.184 17.27 17.078 17.984 16.63 18.978L18.156 19.804C18.436 19.314 18.842 18.992 19.556 18.992C20.256 18.992 20.816 19.468 20.816 20.154C20.816 20.77 20.438 21.288 19.584 21.288H18.744V22.828H19.416C20.48 22.828 21.012 23.43 21.012 24.13C21.012 24.914 20.368 25.404 19.584 25.404C18.716 25.404 18.184 24.998 17.918 24.312L16.28 24.998C16.742 26.216 18.016 27.126 19.724 27.126Z" fill="#FF1A12"/>
<path d="M37.754 27.07C39.504 27.07 40.764 26.272 41.632 25.194L40.722 24.424C40.022 25.306 39.042 25.922 37.754 25.922C35.654 25.922 34.072 24.438 34.072 22.058C34.072 19.776 35.486 18.124 37.74 18.124C38.86 18.124 39.882 18.6 40.708 19.622L41.618 18.866C40.568 17.578 39.168 16.962 37.74 16.962C34.562 16.962 32.798 19.244 32.798 22.058C32.798 25.306 35.066 27.07 37.754 27.07ZM44.5638 19.216H45.7258L46.7478 17.97H46.7758L47.7838 19.216H48.9178L47.3638 17.256H46.1738L44.5638 19.216ZM46.7478 27.084C48.7638 27.084 50.2618 25.67 50.2618 23.598C50.2618 21.526 48.7638 20.098 46.7478 20.098C44.6338 20.098 43.2198 21.638 43.2198 23.598C43.2198 25.558 44.6338 27.084 46.7478 27.084ZM46.7478 26.048C45.3338 26.048 44.3818 24.956 44.3818 23.598C44.3818 22.24 45.3198 21.134 46.7478 21.134C48.0638 21.134 49.0998 22.142 49.0998 23.598C49.0998 25.054 48.0498 26.048 46.7478 26.048ZM52.4527 27H53.5867V23.598C53.5867 22.058 54.4267 21.134 55.7147 21.134C56.7087 21.134 57.3947 21.68 57.3947 23.276V27H58.5287V22.954C58.5287 21.008 57.5487 20.098 56.0787 20.098C55.0287 20.098 54.1327 20.588 53.6007 21.414H53.5867V20.182H52.4527V27ZM64.0291 29.856C66.4091 29.856 67.3891 28.456 67.3891 26.496V20.182H66.2551V21.274H66.2271C65.6811 20.532 64.7991 20.098 63.8331 20.098C61.9151 20.098 60.5711 21.554 60.5711 23.5C60.5711 25.53 62.0131 26.874 63.8751 26.874C64.9251 26.874 65.7371 26.412 66.2411 25.684H66.2691V26.776C66.2691 27.924 65.5271 28.82 63.9871 28.82C63.0071 28.82 62.3211 28.554 61.5371 28.106L61.2571 29.114C62.0691 29.604 63.0071 29.856 64.0291 29.856ZM64.0151 25.824C62.7271 25.824 61.7191 24.914 61.7191 23.472C61.7191 22.142 62.6431 21.148 64.0291 21.148C65.3031 21.148 66.2971 22.072 66.2971 23.444C66.2971 24.802 65.3871 25.824 64.0151 25.824ZM76.2581 27H77.3501L80.1221 20.182H78.9041L76.8181 25.558H76.8041L74.7181 20.182H73.4861L76.2581 27ZM82.6595 18.936C83.1215 18.936 83.4855 18.572 83.4855 18.124C83.4855 17.676 83.1215 17.312 82.6595 17.312C82.1975 17.312 81.8335 17.676 81.8335 18.124C81.8335 18.572 82.1975 18.936 82.6595 18.936ZM82.0855 27H83.2195V20.182H82.0855V27ZM88.8871 17.97H88.9151L89.9231 19.216H91.0571L89.5031 17.256H88.3131L86.7031 19.216H87.8651L88.8871 17.97ZM91.9951 23.472C91.9951 21.526 90.7211 20.098 88.8591 20.098C86.9131 20.098 85.4991 21.54 85.4991 23.598C85.4991 25.684 86.9271 27.084 88.9431 27.084C90.3151 27.084 91.1691 26.566 91.7571 25.81L90.9591 25.138C90.5391 25.656 89.8951 26.048 88.9851 26.048C87.6971 26.048 86.8011 25.208 86.6471 23.934H91.9671C91.9671 23.85 91.9951 23.654 91.9951 23.472ZM88.8451 21.134C89.9651 21.134 90.6931 21.89 90.8611 23.01H86.6751C86.8851 21.848 87.7531 21.134 88.8451 21.134ZM88.9571 28.316C88.4951 28.316 88.1311 28.68 88.1311 29.128C88.1311 29.576 88.4951 29.94 88.9571 29.94C89.4191 29.94 89.7831 29.576 89.7831 29.128C89.7831 28.68 89.4191 28.316 88.9571 28.316ZM97.1258 27.084C98.4558 27.084 99.3658 26.58 99.9398 25.894L99.1558 25.18C98.7358 25.698 98.0218 26.048 97.2097 26.048C95.8238 26.048 94.8858 25.054 94.8858 23.598C94.8858 22.156 95.8238 21.134 97.2238 21.134C98.0358 21.134 98.7078 21.498 99.1418 22.002L99.9118 21.316C99.2398 20.518 98.1898 20.098 97.1678 20.098C95.1378 20.098 93.7238 21.54 93.7238 23.598C93.7238 25.67 95.1378 27.084 97.1258 27.084ZM108.331 27.084C109.969 27.084 110.781 26.202 110.781 25.138C110.795 23.808 109.843 23.556 108.401 22.996C107.659 22.73 107.113 22.464 107.113 21.932C107.113 21.414 107.631 21.106 108.163 21.106C108.751 21.106 109.381 21.288 109.969 21.834L110.557 20.938C109.801 20.322 109.031 20.098 108.205 20.098C106.917 20.098 105.965 20.882 105.965 21.932C105.965 23.178 106.903 23.626 108.009 24.018C109.003 24.382 109.633 24.55 109.633 25.152C109.633 25.67 109.157 26.076 108.331 26.076C107.379 26.076 106.777 25.768 106.245 25.25L105.671 26.118C106.329 26.692 107.197 27.084 108.331 27.084ZM115.296 17.158H116.206L117.928 15.17H116.654L115.296 17.158ZM115.842 19.272C117.018 19.272 117.774 18.53 117.858 17.284H116.948C116.92 17.872 116.528 18.376 115.842 18.376C115.17 18.376 114.764 17.872 114.736 17.284H113.826C113.91 18.53 114.666 19.272 115.842 19.272ZM115.59 27.084C116.696 27.084 117.536 26.58 118.026 25.768H118.04V27H119.132V20.182H117.998V21.386L117.97 21.4C117.48 20.574 116.598 20.098 115.59 20.098C113.658 20.098 112.272 21.624 112.272 23.64C112.272 25.712 113.714 27.084 115.59 27.084ZM115.758 26.048C114.358 26.048 113.42 25.012 113.42 23.64C113.42 22.128 114.47 21.134 115.758 21.134C117.102 21.134 118.04 22.24 118.04 23.64C118.04 25.082 117.018 26.048 115.758 26.048ZM121.669 29.772H122.803V25.824H122.817C123.321 26.608 124.161 27.084 125.239 27.084C127.115 27.084 128.557 25.712 128.557 23.64C128.557 21.624 127.171 20.098 125.239 20.098C124.203 20.098 123.335 20.574 122.817 21.386H122.803V20.182H121.669V29.772ZM125.085 26.048C123.783 26.048 122.747 25.082 122.747 23.64C122.747 22.24 123.685 21.134 125.071 21.134C126.359 21.134 127.409 22.128 127.409 23.64C127.409 25.012 126.457 26.048 125.085 26.048ZM142.42 18.208H141.552V16.696H140.418V18.208H137.548V19.02H140.418V21.4H140.404C139.886 20.574 139.004 20.098 137.968 20.098C136.05 20.098 134.636 21.624 134.636 23.64C134.636 25.712 136.092 27.084 137.982 27.084C139.088 27.084 139.956 26.566 140.446 25.74H140.46V27H141.552V19.02H142.42V18.208ZM138.136 26.048C136.75 26.048 135.798 25.012 135.798 23.64C135.798 22.128 136.848 21.134 138.15 21.134C139.522 21.134 140.46 22.24 140.46 23.64C140.46 25.082 139.424 26.048 138.136 26.048ZM151.368 16.01H150.08L148.736 17.998H149.632L151.368 16.01ZM147.028 17.97H147.056L148.064 19.216H149.198L147.644 17.256H146.454L144.844 19.216H146.006L147.028 17.97ZM146.986 20.098C145.04 20.098 143.626 21.54 143.626 23.598C143.626 25.684 145.054 27.084 147.07 27.084C148.442 27.084 149.296 26.566 149.884 25.81L149.086 25.138C148.666 25.656 148.022 26.048 147.112 26.048C145.824 26.048 144.928 25.208 144.774 23.934H150.094C150.094 23.85 150.122 23.654 150.122 23.472C150.122 21.526 148.848 20.098 146.986 20.098ZM146.972 21.134C148.092 21.134 148.82 21.89 148.988 23.01H144.802C145.012 21.848 145.88 21.134 146.972 21.134ZM152.285 27H153.419V23.598C153.419 22.058 154.259 21.134 155.547 21.134C156.541 21.134 157.227 21.68 157.227 23.276V27H158.361V22.954C158.361 21.008 157.381 20.098 155.911 20.098C154.861 20.098 153.965 20.588 153.433 21.414H153.419V20.182H152.285V27ZM165.166 27H166.3V23.57C166.3 22.03 167.14 21.134 168.498 21.134C169.492 21.134 170.178 21.694 170.178 23.234V27H171.312V22.912C171.312 20.966 170.304 20.098 168.834 20.098C167.742 20.098 166.846 20.56 166.314 21.372H166.3V16.696H165.166V27ZM176.67 27.084C177.776 27.084 178.616 26.58 179.106 25.768H179.12V27H180.212V20.182H179.078V21.386L179.05 21.4C178.56 20.574 177.678 20.098 176.67 20.098C174.738 20.098 173.352 21.624 173.352 23.64C173.352 25.712 174.794 27.084 176.67 27.084ZM176.838 26.048C175.438 26.048 174.5 25.012 174.5 23.64C174.5 22.128 175.55 21.134 176.838 21.134C178.182 21.134 179.12 22.24 179.12 23.64C179.12 25.082 178.098 26.048 176.838 26.048ZM176.824 28.316C176.362 28.316 175.998 28.68 175.998 29.128C175.998 29.576 176.362 29.94 176.824 29.94C177.286 29.94 177.65 29.576 177.65 29.128C177.65 28.68 177.286 28.316 176.824 28.316ZM182.75 27H183.884V23.598C183.884 22.058 184.724 21.134 186.012 21.134C187.006 21.134 187.692 21.68 187.692 23.276V27H188.826V22.954C188.826 21.008 187.846 20.098 186.376 20.098C185.326 20.098 184.43 20.588 183.898 21.414H183.884V20.182H182.75V27Z" fill="#313131"/>
<g clip-path="url(#clip0_7384_996)">
<path d="M351.158 25.825L354.975 22L351.158 18.175L352.333 17L357.333 22L352.333 27L351.158 25.825Z" fill="#FFB8B6"/>
</g>
<path d="M0 0H376H0ZM376 44H0H376ZM8 44C1.37258 44 -4 38.6274 -4 32V12C-4 5.37258 1.37258 0 8 0C5.79086 0 4 3.58172 4 8V36C4 40.4183 5.79086 44 8 44ZM376 0V44V0Z" fill="#FF1A12" mask="url(#path-1-inside-1_7384_996)"/>
<defs>
<clipPath id="clip0_7384_996">
<rect width="20" height="20" fill="white" transform="translate(344 12)"/>
</clipPath>
</defs>
</svg>
