<svg width="224" height="224" viewBox="0 0 224 224" fill="none" xmlns="http://www.w3.org/2000/svg">
<path d="M214 112C218.418 112 222.03 108.414 221.709 104.007C221.378 99.4635 220.765 94.9446 219.874 90.4769C219.009 86.144 214.572 83.6495 210.314 84.8266L183.326 92.286C179.067 93.4631 176.621 97.8686 177.274 102.238C177.363 102.831 177.443 103.425 177.516 104.02C178.05 108.406 181.582 112 186 112H214Z" fill="#B4A5FA" stroke="white" stroke-width="4"/>
<path d="M210.314 84.8264C214.572 83.6493 217.098 79.23 215.615 75.0682C209.955 59.1883 200.707 44.7858 188.549 33.0044C174.471 19.3631 157.004 9.73139 137.955 5.10603C118.906 0.480675 98.9674 1.0297 80.2018 6.69629C61.4362 12.3629 44.5257 22.9412 31.2203 37.3365C17.915 51.7318 8.69805 69.4211 4.52342 88.5739C0.34878 107.727 1.36808 127.647 7.47584 146.274C13.5836 164.901 24.5579 181.557 39.2631 194.519C51.9633 205.713 67.048 213.801 83.3235 218.196C87.5891 219.348 91.7962 216.483 92.635 212.145L97.9509 184.654C98.7897 180.316 95.9309 176.166 91.7262 174.809C83.1338 172.036 75.1736 167.519 68.3579 161.511C59.5348 153.734 52.9502 143.74 49.2855 132.564C45.6208 121.388 45.0093 109.436 47.514 97.9443C50.0188 86.4526 55.549 75.8391 63.5322 67.2019C71.5154 58.5647 81.6617 52.2177 92.9211 48.8178C104.18 45.4178 116.144 45.0884 127.573 47.8636C139.003 50.6388 149.483 56.4178 157.929 64.6026C164.454 70.9252 169.582 78.506 173.022 86.8539C174.705 90.9389 179.067 93.4629 183.326 92.2858L210.314 84.8264Z" fill="#A0D2FF" stroke="white" stroke-width="4"/>
<path d="M92.635 212.145C91.7962 216.483 94.6318 220.71 99.0192 221.232C114.317 223.05 129.857 221.637 144.625 217.051C159.394 212.464 173 204.824 184.577 194.66C187.897 191.745 187.839 186.655 184.69 183.556L164.736 163.913C161.587 160.813 156.549 160.898 153.091 163.648C146.705 168.729 139.413 172.596 131.575 175.03C123.738 177.465 115.538 178.409 107.397 177.84C102.99 177.531 98.7897 180.316 97.9509 184.654L92.635 212.145Z" fill="#141ED2" stroke="white" stroke-width="4"/>
<path d="M184.69 183.555C187.839 186.655 192.929 186.633 195.791 183.267C210.931 165.468 220.012 143.299 221.709 119.993C222.03 115.587 218.418 112 214 112H186C181.582 112 178.05 115.595 177.516 119.981C176.084 131.735 171.514 142.893 164.288 152.274C161.592 155.774 161.587 160.813 164.736 163.913L184.69 183.555Z" fill="#F29913" stroke="white" stroke-width="4"/>
<path d="M95.5493 111H109.853V107.064H101.949L101.917 106.968L106.013 102.68C108.861 99.736 109.661 97.784 109.661 95.288C109.661 91.224 106.333 88.792 102.653 88.792C98.9733 88.792 96.6693 90.616 95.3893 92.952L98.4933 95.16C99.4533 93.56 100.765 92.824 102.333 92.824C104.029 92.824 105.245 94.104 105.245 95.8C105.245 97.56 104.093 99.032 102.301 100.888L95.4853 108.152L95.5493 111ZM120.641 88.76C116.193 88.76 112.737 91.736 112.737 96.056C112.737 100.568 115.809 103.16 119.457 103.16C120.897 103.16 122.337 102.808 123.521 102.136L123.553 102.168C122.241 105.336 119.521 107.192 115.553 108.28L116.865 111.8C123.745 110.488 128.577 104.824 128.577 97.592C128.577 92.312 125.217 88.76 120.641 88.76ZM117.025 96.152C117.025 94.264 118.465 92.696 120.705 92.696C122.849 92.696 124.417 94.488 124.417 97.208V97.528C123.521 98.616 122.113 99.48 120.609 99.48C118.401 99.48 117.025 98.104 117.025 96.152Z" fill="#14142B"/>
<path d="M82.5653 139H83.7833V131.174H83.8113L89.3693 139H90.6153V129.06H89.3973V136.97H89.3833L83.7693 129.06H82.5653V139ZM92.9109 139H94.0449V135.57C94.0449 134.03 94.8849 133.134 96.2429 133.134C97.2369 133.134 97.9229 133.694 97.9229 135.234V139H99.0569V134.912C99.0569 132.966 98.0489 132.098 96.5789 132.098C95.4869 132.098 94.5909 132.56 94.0589 133.372H94.0449V128.696H92.9109V139ZM101.704 130.936C102.166 130.936 102.53 130.572 102.53 130.124C102.53 129.676 102.166 129.312 101.704 129.312C101.242 129.312 100.878 129.676 100.878 130.124C100.878 130.572 101.242 130.936 101.704 130.936ZM101.13 139H102.264V132.182H101.13V139ZM107.431 129.97H107.459L108.467 131.216H109.601L108.047 129.256H106.857L105.247 131.216H106.409L107.431 129.97ZM110.539 135.472C110.539 133.526 109.265 132.098 107.403 132.098C105.457 132.098 104.043 133.54 104.043 135.598C104.043 137.684 105.471 139.084 107.487 139.084C108.859 139.084 109.713 138.566 110.301 137.81L109.503 137.138C109.083 137.656 108.439 138.048 107.529 138.048C106.241 138.048 105.345 137.208 105.191 135.934H110.511C110.511 135.85 110.539 135.654 110.539 135.472ZM107.389 133.134C108.509 133.134 109.237 133.89 109.405 135.01H105.219C105.429 133.848 106.297 133.134 107.389 133.134ZM107.501 140.316C107.039 140.316 106.675 140.68 106.675 141.128C106.675 141.576 107.039 141.94 107.501 141.94C107.963 141.94 108.327 141.576 108.327 141.128C108.327 140.68 107.963 140.316 107.501 140.316ZM112.202 139H113.336V135.612C113.336 134.086 114.176 133.134 115.296 133.134C116.318 133.134 116.878 133.932 116.878 135.388V139H118.012V135.612C118.012 134.086 118.866 133.134 119.93 133.134C120.966 133.134 121.484 133.932 121.484 135.388V139H122.618V135.08C122.618 133.134 121.778 132.098 120.266 132.098C119.202 132.098 118.278 132.63 117.76 133.554H117.746C117.396 132.616 116.654 132.098 115.632 132.098C114.722 132.098 113.868 132.588 113.35 133.414H113.336V132.182H112.202V139ZM130.433 139H131.525L134.297 132.182H133.079L130.993 137.558H130.979L128.893 132.182H127.661L130.433 139ZM138.085 139.084C138.981 139.084 139.821 138.636 140.339 137.824H140.353V139H141.487V132.182H140.353V135.486C140.353 137.11 139.415 138.048 138.323 138.048C137.245 138.048 136.657 137.46 136.657 135.92V132.182H135.523V136.242C135.523 138.188 136.517 139.084 138.085 139.084ZM138.575 140.316C138.113 140.316 137.749 140.68 137.749 141.128C137.749 141.576 138.113 141.94 138.575 141.94C139.037 141.94 139.401 141.576 139.401 141.128C139.401 140.68 139.037 140.316 138.575 140.316Z" fill="#24264E"/>
</svg>
