<svg width="376" height="52" viewBox="0 0 376 52" fill="none" xmlns="http://www.w3.org/2000/svg">
<circle cx="4" cy="11" r="4" fill="#A0D2FF"/>
<path d="M18.2 6.06H15.232V10.498H14.28V11.576H15.232V16H18.242C21.42 16 23.366 13.97 23.366 11.044C23.366 8.104 21.35 6.06 18.2 6.06ZM18.172 14.894H16.45V11.576H19.11V10.498H16.45V7.166H18.214C20.538 7.166 22.106 8.776 22.106 11.044C22.106 13.284 20.594 14.894 18.172 14.894ZM29.4082 8.132C30.0242 8.132 30.5562 7.6 30.8082 6.662L30.0942 6.424C29.9122 6.914 29.6182 7.194 29.2822 7.194C28.9602 7.194 28.6802 6.97 28.3862 6.788C28.0782 6.578 27.7422 6.382 27.2522 6.382C26.5382 6.382 26.0622 6.914 25.7962 7.754L26.5242 8.076C26.7062 7.586 26.9862 7.292 27.3642 7.292C27.6302 7.292 27.8962 7.446 28.1762 7.628C28.5262 7.866 28.9322 8.132 29.4082 8.132ZM28.0642 16.084C29.1702 16.084 30.0102 15.58 30.5002 14.768H30.5142V16H31.6062V9.182H30.4722V10.386L30.4442 10.4C29.9542 9.574 29.0722 9.098 28.0642 9.098C26.1322 9.098 24.7462 10.624 24.7462 12.64C24.7462 14.712 26.1882 16.084 28.0642 16.084ZM28.2322 15.048C26.8322 15.048 25.8942 14.012 25.8942 12.64C25.8942 11.128 26.9442 10.134 28.2322 10.134C29.5762 10.134 30.5142 11.24 30.5142 12.64C30.5142 14.082 29.4922 15.048 28.2322 15.048ZM37.4019 16H38.5359V12.57C38.5359 11.03 39.3759 10.134 40.7339 10.134C41.7279 10.134 42.4139 10.694 42.4139 12.234V16H43.5479V11.912C43.5479 9.966 42.5399 9.098 41.0699 9.098C39.9779 9.098 39.0819 9.56 38.5499 10.372H38.5359V5.696H37.4019V16ZM48.6026 16.084C50.6186 16.084 52.1166 14.67 52.1166 12.598C52.1166 10.526 50.6186 9.098 48.6026 9.098C46.4886 9.098 45.0746 10.638 45.0746 12.598C45.0746 14.558 46.4886 16.084 48.6026 16.084ZM48.6026 15.048C47.1886 15.048 46.2366 13.956 46.2366 12.598C46.2366 11.24 47.1746 10.134 48.6026 10.134C49.9186 10.134 50.9546 11.142 50.9546 12.598C50.9546 14.054 49.9046 15.048 48.6026 15.048ZM56.6355 8.188H57.7835L56.2295 6.27L54.9415 6.256L56.6355 8.188ZM56.6495 16.084C57.7555 16.084 58.5955 15.58 59.0855 14.768H59.0995V16H60.1915V9.182H59.0575V10.386L59.0295 10.4C58.5395 9.574 57.6575 9.098 56.6495 9.098C54.7175 9.098 53.3315 10.624 53.3315 12.64C53.3315 14.712 54.7735 16.084 56.6495 16.084ZM56.8175 15.048C55.4175 15.048 54.4795 14.012 54.4795 12.64C54.4795 11.128 55.5295 10.134 56.8175 10.134C58.1615 10.134 59.0995 11.24 59.0995 12.64C59.0995 14.082 58.0775 15.048 56.8175 15.048ZM62.2007 16H63.3347V12.598C63.3347 11.058 64.1747 10.134 65.4627 10.134C66.4567 10.134 67.1427 10.68 67.1427 12.276V16H68.2767V11.954C68.2767 10.008 67.2967 9.098 65.8267 9.098C64.7767 9.098 63.8807 9.588 63.3487 10.414H63.3347V9.182H62.2007V16ZM75.9435 16.084C76.7555 16.084 77.2175 15.888 77.5955 15.664L77.3015 14.67C76.9655 14.852 76.5455 15.02 76.1395 15.02C75.4955 15.02 75.3135 14.628 75.3135 13.802V10.162H77.5675V9.182H75.3135V6.732L74.1795 6.858V9.182H73.2975V10.162H74.1795V13.97C74.1795 15.342 74.7395 16.084 75.9435 16.084ZM79.0561 16H80.1901V12.57C80.1901 11.03 81.0301 10.134 82.3881 10.134C83.3821 10.134 84.0681 10.694 84.0681 12.234V16H85.2021V11.912C85.2021 9.966 84.1941 9.098 82.7241 9.098C81.6321 9.098 80.7361 9.56 80.2041 10.372H80.1901V5.696H79.0561V16ZM90.0189 8.188H91.1669L89.6129 6.27L88.3249 6.256L90.0189 8.188ZM90.0329 16.084C91.1389 16.084 91.9789 15.58 92.4689 14.768H92.4829V16H93.5749V9.182H92.4409V10.386L92.4129 10.4C91.9229 9.574 91.0409 9.098 90.0329 9.098C88.1009 9.098 86.7149 10.624 86.7149 12.64C86.7149 14.712 88.1569 16.084 90.0329 16.084ZM90.2009 15.048C88.8009 15.048 87.8629 14.012 87.8629 12.64C87.8629 11.128 88.9129 10.134 90.2009 10.134C91.5449 10.134 92.4829 11.24 92.4829 12.64C92.4829 14.082 91.4609 15.048 90.2009 15.048ZM95.5841 16H96.7181V12.598C96.7181 11.058 97.5581 10.134 98.8461 10.134C99.8401 10.134 100.526 10.68 100.526 12.276V16H101.66V11.954C101.66 10.008 100.68 9.098 99.2101 9.098C98.1601 9.098 97.2641 9.588 96.7321 10.414H96.7181V9.182H95.5841V16ZM103.623 16H104.757V12.57C104.757 11.03 105.597 10.134 106.955 10.134C107.949 10.134 108.635 10.694 108.635 12.234V16H109.769V11.912C109.769 9.966 108.761 9.098 107.291 9.098C106.199 9.098 105.303 9.56 104.771 10.372H104.757V5.696H103.623V16Z" fill="#24264E"/>
<path d="M138.758 16H140.382V6.382H139.066L136.252 8.426L137.022 9.63L138.758 8.328V16ZM147.206 16.308L151.602 6.396L150.342 5.85L145.946 15.762L147.206 16.308ZM145.05 11.506C146.73 11.506 147.864 10.246 147.864 8.72C147.864 7.054 146.59 5.948 145.05 5.948C143.356 5.948 142.222 7.194 142.222 8.72C142.222 10.4 143.496 11.506 145.05 11.506ZM145.05 10.316C144.238 10.316 143.58 9.672 143.58 8.734C143.58 7.866 144.168 7.166 145.05 7.166C145.89 7.166 146.548 7.796 146.548 8.734C146.548 9.602 145.96 10.316 145.05 10.316ZM152.456 16.112C154.15 16.112 155.284 14.852 155.284 13.326C155.284 11.66 154.01 10.554 152.456 10.554C150.776 10.554 149.642 11.8 149.642 13.326C149.642 14.992 150.916 16.112 152.456 16.112ZM152.47 14.908C151.644 14.908 150.972 14.278 150.972 13.34C150.972 12.472 151.574 11.772 152.47 11.772C153.296 11.772 153.968 12.402 153.968 13.34C153.968 14.208 153.366 14.908 152.47 14.908Z" fill="#24264E"/>
<circle cx="4" cy="41" r="4" fill="#141ED2"/>
<path d="M18.2 36.06H15.232V40.498H14.28V41.576H15.232V46H18.242C21.42 46 23.366 43.97 23.366 41.044C23.366 38.104 21.35 36.06 18.2 36.06ZM18.172 44.894H16.45V41.576H19.11V40.498H16.45V37.166H18.214C20.538 37.166 22.106 38.776 22.106 41.044C22.106 43.284 20.594 44.894 18.172 44.894ZM28.0642 46.084C29.1702 46.084 30.0102 45.58 30.5002 44.768H30.5142V46H31.6062V39.182H30.4722V40.386L30.4442 40.4C29.9542 39.574 29.0722 39.098 28.0642 39.098C26.1322 39.098 24.7462 40.624 24.7462 42.64C24.7462 44.712 26.1882 46.084 28.0642 46.084ZM28.2322 45.048C26.8322 45.048 25.8942 44.012 25.8942 42.64C25.8942 41.128 26.9442 40.134 28.2322 40.134C29.5762 40.134 30.5142 41.24 30.5142 42.64C30.5142 44.082 29.4922 45.048 28.2322 45.048ZM33.6154 46H34.7494V42.598C34.7494 41.058 35.5894 40.134 36.8774 40.134C37.8714 40.134 38.5574 40.68 38.5574 42.276V46H39.6914V41.954C39.6914 40.008 38.7114 39.098 37.2414 39.098C36.1914 39.098 35.2954 39.588 34.7634 40.414H34.7494V39.182H33.6154V46ZM44.6638 48.856C47.0438 48.856 48.0238 47.456 48.0238 45.496V39.182H46.8898V40.274H46.8618C46.3158 39.532 45.4338 39.098 44.4678 39.098C42.5498 39.098 41.2058 40.554 41.2058 42.5C41.2058 44.53 42.6478 45.874 44.5098 45.874C45.5598 45.874 46.3718 45.412 46.8758 44.684H46.9038V45.776C46.9038 46.924 46.1618 47.82 44.6218 47.82C43.6418 47.82 42.9558 47.554 42.1718 47.106L41.8918 48.114C42.7038 48.604 43.6418 48.856 44.6638 48.856ZM44.6498 44.824C43.3618 44.824 42.3538 43.914 42.3538 42.472C42.3538 41.142 43.2778 40.148 44.6638 40.148C45.9378 40.148 46.9318 41.072 46.9318 42.444C46.9318 43.802 46.0218 44.824 44.6498 44.824ZM55.7248 46.084C56.5368 46.084 56.9988 45.888 57.3768 45.664L57.0828 44.67C56.7468 44.852 56.3268 45.02 55.9208 45.02C55.2768 45.02 55.0948 44.628 55.0948 43.802V40.162H57.3488V39.182H55.0948V36.732L53.9608 36.858V39.182H53.0788V40.162H53.9608V43.97C53.9608 45.342 54.5208 46.084 55.7248 46.084ZM58.8374 46H59.9714V42.57C59.9714 41.03 60.8114 40.134 62.1694 40.134C63.1634 40.134 63.8494 40.694 63.8494 42.234V46H64.9834V41.912C64.9834 39.966 63.9754 39.098 62.5054 39.098C61.4134 39.098 60.5174 39.56 59.9854 40.372H59.9714V35.696H58.8374V46ZM73.6642 38.09V39.056C73.6642 40.064 73.5382 40.652 72.7542 40.806V39.182H71.6202V42.486C71.6202 44.11 70.6822 45.048 69.5902 45.048C68.5122 45.048 67.9242 44.46 67.9242 42.92V39.182H66.7902V43.242C66.7902 45.188 67.7842 46.084 69.3522 46.084C70.2482 46.084 71.0882 45.636 71.6062 44.824H71.6202V46H72.7542V41.59C74.0982 41.52 74.8262 40.68 74.8262 39.112V38.09H73.6642ZM69.8422 47.316C69.3802 47.316 69.0162 47.68 69.0162 48.128C69.0162 48.576 69.3802 48.94 69.8422 48.94C70.3042 48.94 70.6682 48.576 70.6682 48.128C70.6682 47.68 70.3042 47.316 69.8422 47.316ZM78.7572 46.084C80.0872 46.084 80.9972 45.58 81.5712 44.894L80.7872 44.18C80.3672 44.698 79.6532 45.048 78.8412 45.048C77.4552 45.048 76.5172 44.054 76.5172 42.598C76.5172 41.156 77.4552 40.134 78.8552 40.134C79.6672 40.134 80.3392 40.498 80.7732 41.002L81.5432 40.316C80.8712 39.518 79.8212 39.098 78.7992 39.098C76.7692 39.098 75.3552 40.54 75.3552 42.598C75.3552 44.67 76.7692 46.084 78.7572 46.084ZM86.8485 46H87.9825V42.57C87.9825 41.03 88.8225 40.134 90.1805 40.134C91.1745 40.134 91.8605 40.694 91.8605 42.234V46H92.9945V41.912C92.9945 39.966 91.9865 39.098 90.5165 39.098C89.4245 39.098 88.5285 39.56 87.9965 40.372H87.9825V35.696H86.8485V46ZM95.6132 37.936C96.0752 37.936 96.4392 37.572 96.4392 37.124C96.4392 36.676 96.0752 36.312 95.6132 36.312C95.1512 36.312 94.7872 36.676 94.7872 37.124C94.7872 37.572 95.1512 37.936 95.6132 37.936ZM95.0392 46H96.1732V39.182H95.0392V46ZM101.313 36.97H101.341L102.349 38.216H103.483L101.929 36.256H100.739L99.1289 38.216H100.291L101.313 36.97ZM104.421 42.472C104.421 40.526 103.147 39.098 101.285 39.098C99.3389 39.098 97.9249 40.54 97.9249 42.598C97.9249 44.684 99.3529 46.084 101.369 46.084C102.741 46.084 103.595 45.566 104.183 44.81L103.385 44.138C102.965 44.656 102.321 45.048 101.411 45.048C100.123 45.048 99.2269 44.208 99.0729 42.934H104.393C104.393 42.85 104.421 42.654 104.421 42.472ZM101.271 40.134C102.391 40.134 103.119 40.89 103.287 42.01H99.1009C99.3109 40.848 100.179 40.134 101.271 40.134ZM101.383 47.316C100.921 47.316 100.557 47.68 100.557 48.128C100.557 48.576 100.921 48.94 101.383 48.94C101.845 48.94 102.209 48.576 102.209 48.128C102.209 47.68 101.845 47.316 101.383 47.316ZM106.055 46H107.189V42.598C107.189 41.058 108.029 40.134 109.317 40.134C110.311 40.134 110.997 40.68 110.997 42.276V46H112.131V41.954C112.131 40.008 111.151 39.098 109.681 39.098C108.631 39.098 107.735 39.588 107.203 40.414H107.189V39.182H106.055V46Z" fill="#24264E"/>
<path d="M141.144 39.826C140.808 39.826 140.346 39.896 139.898 40.036L140.024 37.88H143.706V36.382H138.498L138.218 41.422L139.1 41.73C139.562 41.352 140.08 41.226 140.668 41.226C141.578 41.226 142.53 41.814 142.53 42.892C142.53 43.872 141.816 44.614 140.64 44.614C139.786 44.614 139.086 44.208 138.68 43.62L137.504 44.558C138.26 45.566 139.464 46.112 140.78 46.112C142.824 46.112 144.182 44.81 144.182 42.92C144.182 40.988 142.81 39.826 141.144 39.826ZM150.325 46.308L154.721 36.396L153.461 35.85L149.065 45.762L150.325 46.308ZM148.169 41.506C149.849 41.506 150.983 40.246 150.983 38.72C150.983 37.054 149.709 35.948 148.169 35.948C146.475 35.948 145.341 37.194 145.341 38.72C145.341 40.4 146.615 41.506 148.169 41.506ZM148.169 40.316C147.357 40.316 146.699 39.672 146.699 38.734C146.699 37.866 147.287 37.166 148.169 37.166C149.009 37.166 149.667 37.796 149.667 38.734C149.667 39.602 149.079 40.316 148.169 40.316ZM155.575 46.112C157.269 46.112 158.403 44.852 158.403 43.326C158.403 41.66 157.129 40.554 155.575 40.554C153.895 40.554 152.761 41.8 152.761 43.326C152.761 44.992 154.035 46.112 155.575 46.112ZM155.589 44.908C154.763 44.908 154.091 44.278 154.091 43.34C154.091 42.472 154.693 41.772 155.589 41.772C156.415 41.772 157.087 42.402 157.087 43.34C157.087 44.208 156.485 44.908 155.589 44.908Z" fill="#24264E"/>
<circle cx="204" cy="11" r="4" fill="#F29913"/>
<path d="M219.754 16.07C221.504 16.07 222.764 15.272 223.632 14.194L222.722 13.424C222.022 14.306 221.042 14.922 219.754 14.922C217.654 14.922 216.072 13.438 216.072 11.058C216.072 8.776 217.486 7.124 219.74 7.124C220.86 7.124 221.882 7.6 222.708 8.622L223.618 7.866C222.568 6.578 221.168 5.962 219.74 5.962C216.562 5.962 214.798 8.244 214.798 11.058C214.798 14.306 217.066 16.07 219.754 16.07ZM225.167 16H226.301V12.57C226.301 11.03 227.141 10.134 228.499 10.134C229.493 10.134 230.179 10.694 230.179 12.234V16H231.313V11.912C231.313 9.966 230.305 9.098 228.835 9.098C227.743 9.098 226.847 9.56 226.315 10.372H226.301V5.696H225.167V16ZM239.994 8.09V9.056C239.994 10.064 239.868 10.652 239.084 10.806V9.182H237.95V12.486C237.95 14.11 237.012 15.048 235.92 15.048C234.842 15.048 234.254 14.46 234.254 12.92V9.182H233.12V13.242C233.12 15.188 234.114 16.084 235.682 16.084C236.578 16.084 237.418 15.636 237.936 14.824H237.95V16H239.084V11.59C240.428 11.52 241.156 10.68 241.156 9.112V8.09H239.994ZM244.989 16.084C246.095 16.084 246.935 15.58 247.425 14.768H247.439V16H248.531V9.182H247.397V10.386L247.369 10.4C246.879 9.574 245.997 9.098 244.989 9.098C243.057 9.098 241.671 10.624 241.671 12.64C241.671 14.712 243.113 16.084 244.989 16.084ZM245.157 15.048C243.757 15.048 242.819 14.012 242.819 12.64C242.819 11.128 243.869 10.134 245.157 10.134C246.501 10.134 247.439 11.24 247.439 12.64C247.439 14.082 246.417 15.048 245.157 15.048ZM256.244 16.084C257.056 16.084 257.518 15.888 257.896 15.664L257.602 14.67C257.266 14.852 256.846 15.02 256.44 15.02C255.796 15.02 255.614 14.628 255.614 13.802V10.162H257.868V9.182H255.614V6.732L254.48 6.858V9.182H253.598V10.162H254.48V13.97C254.48 15.342 255.04 16.084 256.244 16.084ZM259.357 16H260.491V12.57C260.491 11.03 261.331 10.134 262.689 10.134C263.683 10.134 264.369 10.694 264.369 12.234V16H265.503V11.912C265.503 9.966 264.495 9.098 263.025 9.098C261.933 9.098 261.037 9.56 260.505 10.372H260.491V5.696H259.357V16ZM274.184 8.09V9.056C274.184 10.064 274.058 10.652 273.274 10.806V9.182H272.14V12.486C272.14 14.11 271.202 15.048 270.11 15.048C269.032 15.048 268.444 14.46 268.444 12.92V9.182H267.31V13.242C267.31 15.188 268.304 16.084 269.872 16.084C270.768 16.084 271.608 15.636 272.126 14.824H272.14V16H273.274V11.59C274.618 11.52 275.346 10.68 275.346 9.112V8.09H274.184ZM270.362 17.316C269.9 17.316 269.536 17.68 269.536 18.128C269.536 18.576 269.9 18.94 270.362 18.94C270.824 18.94 271.188 18.576 271.188 18.128C271.188 17.68 270.824 17.316 270.362 17.316ZM279.277 16.084C280.607 16.084 281.517 15.58 282.091 14.894L281.307 14.18C280.887 14.698 280.173 15.048 279.361 15.048C277.975 15.048 277.037 14.054 277.037 12.598C277.037 11.156 277.975 10.134 279.375 10.134C280.187 10.134 280.859 10.498 281.293 11.002L282.063 10.316C281.391 9.518 280.341 9.098 279.319 9.098C277.289 9.098 275.875 10.54 275.875 12.598C275.875 14.67 277.289 16.084 279.277 16.084ZM287.368 16H288.502V12.57C288.502 11.03 289.342 10.134 290.7 10.134C291.694 10.134 292.38 10.694 292.38 12.234V16H293.514V11.912C293.514 9.966 292.506 9.098 291.036 9.098C289.944 9.098 289.048 9.56 288.516 10.372H288.502V5.696H287.368V16ZM296.133 7.936C296.595 7.936 296.959 7.572 296.959 7.124C296.959 6.676 296.595 6.312 296.133 6.312C295.671 6.312 295.307 6.676 295.307 7.124C295.307 7.572 295.671 7.936 296.133 7.936ZM295.559 16H296.693V9.182H295.559V16ZM301.832 6.97H301.86L302.868 8.216H304.002L302.448 6.256H301.258L299.648 8.216H300.81L301.832 6.97ZM304.94 12.472C304.94 10.526 303.666 9.098 301.804 9.098C299.858 9.098 298.444 10.54 298.444 12.598C298.444 14.684 299.872 16.084 301.888 16.084C303.26 16.084 304.114 15.566 304.702 14.81L303.904 14.138C303.484 14.656 302.84 15.048 301.93 15.048C300.642 15.048 299.746 14.208 299.592 12.934H304.912C304.912 12.85 304.94 12.654 304.94 12.472ZM301.79 10.134C302.91 10.134 303.638 10.89 303.806 12.01H299.62C299.83 10.848 300.698 10.134 301.79 10.134ZM301.902 17.316C301.44 17.316 301.076 17.68 301.076 18.128C301.076 18.576 301.44 18.94 301.902 18.94C302.364 18.94 302.728 18.576 302.728 18.128C302.728 17.68 302.364 17.316 301.902 17.316ZM306.575 16H307.709V12.598C307.709 11.058 308.549 10.134 309.837 10.134C310.831 10.134 311.517 10.68 311.517 12.276V16H312.651V11.954C312.651 10.008 311.671 9.098 310.201 9.098C309.151 9.098 308.255 9.588 307.723 10.414H307.709V9.182H306.575V16Z" fill="#24264E"/>
<path d="M321.588 16H327.762V14.516H324.052L324.038 14.474L326.068 12.36C327.286 11.1 327.664 10.19 327.664 9.126C327.664 7.362 326.236 6.298 324.654 6.298C323.086 6.298 322.092 7.082 321.546 8.118L322.708 8.944C323.142 8.188 323.772 7.81 324.542 7.81C325.41 7.81 326.012 8.454 326.012 9.308C326.012 10.134 325.438 10.834 324.654 11.66L321.56 14.922L321.588 16ZM332.595 9.826C332.259 9.826 331.797 9.896 331.349 10.036L331.475 7.88H335.157V6.382H329.949L329.669 11.422L330.551 11.73C331.013 11.352 331.531 11.226 332.119 11.226C333.029 11.226 333.981 11.814 333.981 12.892C333.981 13.872 333.267 14.614 332.091 14.614C331.237 14.614 330.537 14.208 330.131 13.62L328.955 14.558C329.711 15.566 330.915 16.112 332.231 16.112C334.275 16.112 335.633 14.81 335.633 12.92C335.633 10.988 334.261 9.826 332.595 9.826ZM341.776 16.308L346.172 6.396L344.912 5.85L340.516 15.762L341.776 16.308ZM339.62 11.506C341.3 11.506 342.434 10.246 342.434 8.72C342.434 7.054 341.16 5.948 339.62 5.948C337.926 5.948 336.792 7.194 336.792 8.72C336.792 10.4 338.066 11.506 339.62 11.506ZM339.62 10.316C338.808 10.316 338.15 9.672 338.15 8.734C338.15 7.866 338.738 7.166 339.62 7.166C340.46 7.166 341.118 7.796 341.118 8.734C341.118 9.602 340.53 10.316 339.62 10.316ZM347.026 16.112C348.72 16.112 349.854 14.852 349.854 13.326C349.854 11.66 348.58 10.554 347.026 10.554C345.346 10.554 344.212 11.8 344.212 13.326C344.212 14.992 345.486 16.112 347.026 16.112ZM347.04 14.908C346.214 14.908 345.542 14.278 345.542 13.34C345.542 12.472 346.144 11.772 347.04 11.772C347.866 11.772 348.538 12.402 348.538 13.34C348.538 14.208 347.936 14.908 347.04 14.908Z" fill="#24264E"/>
<circle cx="204" cy="41" r="4" fill="#B4A5FA"/>
<path d="M219.754 46.07C221.504 46.07 222.764 45.272 223.632 44.194L222.722 43.424C222.022 44.306 221.042 44.922 219.754 44.922C217.654 44.922 216.072 43.438 216.072 41.058C216.072 38.776 217.486 37.124 219.74 37.124C220.86 37.124 221.882 37.6 222.708 38.622L223.618 37.866C222.568 36.578 221.168 35.962 219.74 35.962C216.562 35.962 214.798 38.244 214.798 41.058C214.798 44.306 217.066 46.07 219.754 46.07ZM225.167 46H226.301V42.57C226.301 41.03 227.141 40.134 228.499 40.134C229.493 40.134 230.179 40.694 230.179 42.234V46H231.313V41.912C231.313 39.966 230.305 39.098 228.835 39.098C227.743 39.098 226.847 39.56 226.315 40.372H226.301V35.696H225.167V46ZM234.212 38.216H235.374L236.396 36.97H236.424L237.432 38.216H238.566L237.012 36.256H235.822L234.212 38.216ZM236.144 46.084C237.25 46.084 238.09 45.58 238.58 44.768H238.594V46H239.686V39.182H238.552V40.386L238.524 40.4C238.034 39.574 237.152 39.098 236.144 39.098C234.212 39.098 232.826 40.624 232.826 42.64C232.826 44.712 234.268 46.084 236.144 46.084ZM236.312 45.048C234.912 45.048 233.974 44.012 233.974 42.64C233.974 41.128 235.024 40.134 236.312 40.134C237.656 40.134 238.594 41.24 238.594 42.64C238.594 44.082 237.572 45.048 236.312 45.048ZM236.298 47.316C235.836 47.316 235.472 47.68 235.472 48.128C235.472 48.576 235.836 48.94 236.298 48.94C236.76 48.94 237.124 48.576 237.124 48.128C237.124 47.68 236.76 47.316 236.298 47.316ZM241.695 46H242.829V42.612C242.829 41.086 243.669 40.134 244.789 40.134C245.811 40.134 246.371 40.932 246.371 42.388V46H247.505V42.612C247.505 41.086 248.359 40.134 249.423 40.134C250.459 40.134 250.977 40.932 250.977 42.388V46H252.111V42.08C252.111 40.134 251.271 39.098 249.759 39.098C248.695 39.098 247.771 39.63 247.253 40.554H247.239C246.889 39.616 246.147 39.098 245.125 39.098C244.215 39.098 243.361 39.588 242.843 40.414H242.829V39.182H241.695V46ZM259.758 46.084C260.57 46.084 261.032 45.888 261.41 45.664L261.116 44.67C260.78 44.852 260.36 45.02 259.954 45.02C259.31 45.02 259.128 44.628 259.128 43.802V40.162H261.382V39.182H259.128V36.732L257.994 36.858V39.182H257.112V40.162H257.994V43.97C257.994 45.342 258.554 46.084 259.758 46.084ZM263.488 37.936C263.95 37.936 264.314 37.572 264.314 37.124C264.314 36.676 263.95 36.312 263.488 36.312C263.026 36.312 262.662 36.676 262.662 37.124C262.662 37.572 263.026 37.936 263.488 37.936ZM262.914 46H264.048V39.182H262.914V46ZM273.541 35.01H272.253L270.909 36.998H271.805L273.541 35.01ZM269.201 36.97H269.229L270.237 38.216H271.371L269.817 36.256H268.627L267.017 38.216H268.179L269.201 36.97ZM269.159 39.098C267.213 39.098 265.799 40.54 265.799 42.598C265.799 44.684 267.227 46.084 269.243 46.084C270.615 46.084 271.469 45.566 272.057 44.81L271.259 44.138C270.839 44.656 270.195 45.048 269.285 45.048C267.997 45.048 267.101 44.208 266.947 42.934H272.267C272.267 42.85 272.295 42.654 272.295 42.472C272.295 40.526 271.021 39.098 269.159 39.098ZM269.145 40.134C270.265 40.134 270.993 40.89 271.161 42.01H266.975C267.185 40.848 268.053 40.134 269.145 40.134ZM273.93 46H275.064V42.598C275.064 41.058 275.904 40.134 277.192 40.134C278.186 40.134 278.872 40.68 278.872 42.276V46H280.006V41.954C280.006 40.008 279.026 39.098 277.556 39.098C276.506 39.098 275.61 39.588 275.078 40.414H275.064V39.182H273.93V46ZM293.091 37.208H292.223V35.696H291.089V37.208H288.219V38.02H291.089V40.4H291.075C290.557 39.574 289.675 39.098 288.639 39.098C286.721 39.098 285.307 40.624 285.307 42.64C285.307 44.712 286.763 46.084 288.653 46.084C289.759 46.084 290.627 45.566 291.117 44.74H291.131V46H292.223V38.02H293.091V37.208ZM288.807 45.048C287.421 45.048 286.469 44.012 286.469 42.64C286.469 41.128 287.519 40.134 288.821 40.134C290.193 40.134 291.131 41.24 291.131 42.64C291.131 44.082 290.095 45.048 288.807 45.048ZM295.113 38.216H296.275L297.297 36.97H297.325L298.333 38.216H299.467L297.913 36.256H296.723L295.113 38.216ZM297.297 46.084C299.313 46.084 300.811 44.67 300.811 42.598C300.811 40.526 299.313 39.098 297.297 39.098C295.183 39.098 293.769 40.638 293.769 42.598C293.769 44.558 295.183 46.084 297.297 46.084ZM297.297 45.048C295.883 45.048 294.931 43.956 294.931 42.598C294.931 41.24 295.869 40.134 297.297 40.134C298.613 40.134 299.649 41.142 299.649 42.598C299.649 44.054 298.599 45.048 297.297 45.048ZM297.297 47.316C296.835 47.316 296.471 47.68 296.471 48.128C296.471 48.576 296.835 48.94 297.297 48.94C297.759 48.94 298.123 48.576 298.123 48.128C298.123 47.68 297.759 47.316 297.297 47.316Z" fill="#24264E"/>
<path d="M309.588 46H315.762V44.516H312.052L312.038 44.474L314.068 42.36C315.286 41.1 315.664 40.19 315.664 39.126C315.664 37.362 314.236 36.298 312.654 36.298C311.086 36.298 310.092 37.082 309.546 38.118L310.708 38.944C311.142 38.188 311.772 37.81 312.542 37.81C313.41 37.81 314.012 38.454 314.012 39.308C314.012 40.134 313.438 40.834 312.654 41.66L309.56 44.922L309.588 46ZM320.595 39.826C320.259 39.826 319.797 39.896 319.349 40.036L319.475 37.88H323.157V36.382H317.949L317.669 41.422L318.551 41.73C319.013 41.352 319.531 41.226 320.119 41.226C321.029 41.226 321.981 41.814 321.981 42.892C321.981 43.872 321.267 44.614 320.091 44.614C319.237 44.614 318.537 44.208 318.131 43.62L316.955 44.558C317.711 45.566 318.915 46.112 320.231 46.112C322.275 46.112 323.633 44.81 323.633 42.92C323.633 40.988 322.261 39.826 320.595 39.826ZM329.776 46.308L334.172 36.396L332.912 35.85L328.516 45.762L329.776 46.308ZM327.62 41.506C329.3 41.506 330.434 40.246 330.434 38.72C330.434 37.054 329.16 35.948 327.62 35.948C325.926 35.948 324.792 37.194 324.792 38.72C324.792 40.4 326.066 41.506 327.62 41.506ZM327.62 40.316C326.808 40.316 326.15 39.672 326.15 38.734C326.15 37.866 326.738 37.166 327.62 37.166C328.46 37.166 329.118 37.796 329.118 38.734C329.118 39.602 328.53 40.316 327.62 40.316ZM335.026 46.112C336.72 46.112 337.854 44.852 337.854 43.326C337.854 41.66 336.58 40.554 335.026 40.554C333.346 40.554 332.212 41.8 332.212 43.326C332.212 44.992 333.486 46.112 335.026 46.112ZM335.04 44.908C334.214 44.908 333.542 44.278 333.542 43.34C333.542 42.472 334.144 41.772 335.04 41.772C335.866 41.772 336.538 42.402 336.538 43.34C336.538 44.208 335.936 44.908 335.04 44.908Z" fill="#FF1A12"/>
</svg>
